<mxfile host="Electron" modified="2023-06-15T17:32:08.343Z" agent="Mozilla/5.0 (Windows NT 10.0; Win64; x64) AppleWebKit/537.36 (KHTML, like Gecko) draw.io/21.2.8 Chrome/112.0.5615.165 Electron/24.2.0 Safari/537.36" etag="RzbREhmjzmTBmpGuH_YA" version="21.2.8" type="device">
  <diagram name="Страница 1" id="2nEi18-LgX2A4ayY6Vc7">
    <mxGraphModel dx="3000" dy="3080" grid="1" gridSize="10" guides="1" tooltips="1" connect="1" arrows="1" fold="1" page="1" pageScale="1" pageWidth="827" pageHeight="1169" math="0" shadow="0">
      <root>
        <mxCell id="0" />
        <mxCell id="1" parent="0" />
        <mxCell id="SX_XCFtSXzHyb8GBrlpH-2" value="" style="endArrow=none;html=1;rounded=0;strokeWidth=3;" edge="1" parent="1">
          <mxGeometry width="50" height="50" relative="1" as="geometry">
            <mxPoint x="1800" y="1080" as="sourcePoint" />
            <mxPoint x="120" y="1080" as="targetPoint" />
            <Array as="points" />
          </mxGeometry>
        </mxCell>
        <mxCell id="SX_XCFtSXzHyb8GBrlpH-178" style="edgeStyle=orthogonalEdgeStyle;rounded=0;orthogonalLoop=1;jettySize=auto;html=1;exitX=1;exitY=0;exitDx=0;exitDy=0;entryX=0.286;entryY=0.923;entryDx=0;entryDy=0;strokeWidth=3;fillColor=#e51400;strokeColor=#B20000;elbow=vertical;curved=1;entryPerimeter=0;" edge="1" parent="1" source="SX_XCFtSXzHyb8GBrlpH-7" target="SX_XCFtSXzHyb8GBrlpH-35">
          <mxGeometry relative="1" as="geometry">
            <Array as="points">
              <mxPoint x="310" y="939" />
              <mxPoint x="310" y="410" />
              <mxPoint x="468" y="410" />
            </Array>
          </mxGeometry>
        </mxCell>
        <mxCell id="SX_XCFtSXzHyb8GBrlpH-7" value="" style="ellipse;whiteSpace=wrap;html=1;aspect=fixed;fillColor=#000000;" vertex="1" parent="1">
          <mxGeometry x="209" y="930" width="60" height="60" as="geometry" />
        </mxCell>
        <mxCell id="SX_XCFtSXzHyb8GBrlpH-8" value="" style="group" vertex="1" connectable="0" parent="1">
          <mxGeometry x="120" y="-340" height="1420" as="geometry" />
        </mxCell>
        <mxCell id="SX_XCFtSXzHyb8GBrlpH-1" value="" style="endArrow=none;html=1;rounded=0;strokeWidth=3;" edge="1" parent="SX_XCFtSXzHyb8GBrlpH-8">
          <mxGeometry width="50" height="50" relative="1" as="geometry">
            <mxPoint y="1203.6190476190477" as="sourcePoint" />
            <mxPoint as="targetPoint" />
            <Array as="points" />
          </mxGeometry>
        </mxCell>
        <mxCell id="SX_XCFtSXzHyb8GBrlpH-6" value="" style="endArrow=none;html=1;rounded=0;strokeWidth=3;" edge="1" parent="SX_XCFtSXzHyb8GBrlpH-8">
          <mxGeometry width="50" height="50" relative="1" as="geometry">
            <mxPoint y="1420" as="sourcePoint" />
            <mxPoint y="1203.6190476190477" as="targetPoint" />
            <Array as="points" />
          </mxGeometry>
        </mxCell>
        <mxCell id="SX_XCFtSXzHyb8GBrlpH-9" value="" style="ellipse;whiteSpace=wrap;html=1;aspect=fixed;fillColor=#000000;" vertex="1" parent="1">
          <mxGeometry x="209" y="810" width="60" height="60" as="geometry" />
        </mxCell>
        <mxCell id="SX_XCFtSXzHyb8GBrlpH-10" value="" style="ellipse;whiteSpace=wrap;html=1;aspect=fixed;fillColor=#000000;" vertex="1" parent="1">
          <mxGeometry x="209" y="690" width="60" height="60" as="geometry" />
        </mxCell>
        <mxCell id="SX_XCFtSXzHyb8GBrlpH-11" value="" style="ellipse;whiteSpace=wrap;html=1;aspect=fixed;fillColor=#000000;" vertex="1" parent="1">
          <mxGeometry x="209" y="570" width="60" height="60" as="geometry" />
        </mxCell>
        <mxCell id="SX_XCFtSXzHyb8GBrlpH-12" value="" style="ellipse;whiteSpace=wrap;html=1;aspect=fixed;fillColor=#000000;" vertex="1" parent="1">
          <mxGeometry x="209" y="450" width="60" height="60" as="geometry" />
        </mxCell>
        <mxCell id="SX_XCFtSXzHyb8GBrlpH-137" style="edgeStyle=isometricEdgeStyle;rounded=0;orthogonalLoop=1;jettySize=auto;html=1;exitX=0.978;exitY=0.673;exitDx=0;exitDy=0;entryX=0;entryY=0.5;entryDx=0;entryDy=0;exitPerimeter=0;strokeWidth=3;fillColor=#0050ef;strokeColor=#001DBC;" edge="1" parent="1" source="SX_XCFtSXzHyb8GBrlpH-13" target="SX_XCFtSXzHyb8GBrlpH-35">
          <mxGeometry relative="1" as="geometry">
            <Array as="points">
              <mxPoint x="320" y="400" />
            </Array>
          </mxGeometry>
        </mxCell>
        <mxCell id="SX_XCFtSXzHyb8GBrlpH-13" value="" style="ellipse;whiteSpace=wrap;html=1;aspect=fixed;fillColor=#000000;" vertex="1" parent="1">
          <mxGeometry x="209" y="330" width="60" height="60" as="geometry" />
        </mxCell>
        <mxCell id="SX_XCFtSXzHyb8GBrlpH-14" value="" style="ellipse;whiteSpace=wrap;html=1;aspect=fixed;fillColor=#000000;" vertex="1" parent="1">
          <mxGeometry x="209" y="210" width="60" height="60" as="geometry" />
        </mxCell>
        <mxCell id="SX_XCFtSXzHyb8GBrlpH-15" value="" style="ellipse;whiteSpace=wrap;html=1;aspect=fixed;fillColor=#000000;" vertex="1" parent="1">
          <mxGeometry x="209" y="90" width="60" height="60" as="geometry" />
        </mxCell>
        <mxCell id="SX_XCFtSXzHyb8GBrlpH-16" value="" style="ellipse;whiteSpace=wrap;html=1;aspect=fixed;fillColor=#000000;" vertex="1" parent="1">
          <mxGeometry x="209" y="-30" width="60" height="60" as="geometry" />
        </mxCell>
        <mxCell id="SX_XCFtSXzHyb8GBrlpH-17" value="" style="ellipse;whiteSpace=wrap;html=1;aspect=fixed;fillColor=#000000;" vertex="1" parent="1">
          <mxGeometry x="209" y="-150" width="60" height="60" as="geometry" />
        </mxCell>
        <mxCell id="SX_XCFtSXzHyb8GBrlpH-18" value="&lt;font size=&quot;1&quot; style=&quot;&quot;&gt;&lt;b style=&quot;font-size: 30px;&quot;&gt;0&lt;/b&gt;&lt;/font&gt;" style="text;html=1;strokeColor=none;fillColor=none;align=center;verticalAlign=middle;whiteSpace=wrap;rounded=0;" vertex="1" parent="1">
          <mxGeometry x="80" y="1100" width="60" height="30" as="geometry" />
        </mxCell>
        <mxCell id="SX_XCFtSXzHyb8GBrlpH-19" value="&lt;font size=&quot;1&quot; style=&quot;&quot;&gt;&lt;b style=&quot;font-size: 30px;&quot;&gt;1&lt;/b&gt;&lt;/font&gt;" style="text;html=1;strokeColor=none;fillColor=none;align=center;verticalAlign=middle;whiteSpace=wrap;rounded=0;" vertex="1" parent="1">
          <mxGeometry x="10" y="945" width="60" height="30" as="geometry" />
        </mxCell>
        <mxCell id="SX_XCFtSXzHyb8GBrlpH-20" value="" style="ellipse;whiteSpace=wrap;html=1;aspect=fixed;fillColor=#000000;" vertex="1" parent="1">
          <mxGeometry x="329" y="930" width="60" height="60" as="geometry" />
        </mxCell>
        <mxCell id="SX_XCFtSXzHyb8GBrlpH-21" value="" style="ellipse;whiteSpace=wrap;html=1;aspect=fixed;fillColor=#000000;" vertex="1" parent="1">
          <mxGeometry x="329" y="810" width="60" height="60" as="geometry" />
        </mxCell>
        <mxCell id="SX_XCFtSXzHyb8GBrlpH-22" value="" style="ellipse;whiteSpace=wrap;html=1;aspect=fixed;fillColor=#000000;" vertex="1" parent="1">
          <mxGeometry x="329" y="690" width="60" height="60" as="geometry" />
        </mxCell>
        <mxCell id="SX_XCFtSXzHyb8GBrlpH-23" value="" style="ellipse;whiteSpace=wrap;html=1;aspect=fixed;fillColor=#000000;" vertex="1" parent="1">
          <mxGeometry x="329" y="570" width="60" height="60" as="geometry" />
        </mxCell>
        <mxCell id="SX_XCFtSXzHyb8GBrlpH-24" value="" style="ellipse;whiteSpace=wrap;html=1;aspect=fixed;fillColor=#000000;" vertex="1" parent="1">
          <mxGeometry x="329" y="450" width="60" height="60" as="geometry" />
        </mxCell>
        <mxCell id="SX_XCFtSXzHyb8GBrlpH-25" value="" style="ellipse;whiteSpace=wrap;html=1;aspect=fixed;fillColor=#000000;" vertex="1" parent="1">
          <mxGeometry x="329" y="330" width="60" height="60" as="geometry" />
        </mxCell>
        <mxCell id="SX_XCFtSXzHyb8GBrlpH-26" value="" style="ellipse;whiteSpace=wrap;html=1;aspect=fixed;fillColor=#000000;" vertex="1" parent="1">
          <mxGeometry x="329" y="210" width="60" height="60" as="geometry" />
        </mxCell>
        <mxCell id="SX_XCFtSXzHyb8GBrlpH-27" value="" style="ellipse;whiteSpace=wrap;html=1;aspect=fixed;fillColor=#000000;" vertex="1" parent="1">
          <mxGeometry x="329" y="90" width="60" height="60" as="geometry" />
        </mxCell>
        <mxCell id="SX_XCFtSXzHyb8GBrlpH-28" value="" style="ellipse;whiteSpace=wrap;html=1;aspect=fixed;fillColor=#000000;" vertex="1" parent="1">
          <mxGeometry x="329" y="-30" width="60" height="60" as="geometry" />
        </mxCell>
        <mxCell id="SX_XCFtSXzHyb8GBrlpH-29" value="" style="ellipse;whiteSpace=wrap;html=1;aspect=fixed;fillColor=#000000;" vertex="1" parent="1">
          <mxGeometry x="329" y="-150" width="60" height="60" as="geometry" />
        </mxCell>
        <mxCell id="SX_XCFtSXzHyb8GBrlpH-30" value="" style="ellipse;whiteSpace=wrap;html=1;aspect=fixed;fillColor=#000000;" vertex="1" parent="1">
          <mxGeometry x="451" y="931" width="60" height="60" as="geometry" />
        </mxCell>
        <mxCell id="SX_XCFtSXzHyb8GBrlpH-31" value="" style="ellipse;whiteSpace=wrap;html=1;aspect=fixed;fillColor=#000000;" vertex="1" parent="1">
          <mxGeometry x="451" y="811" width="60" height="60" as="geometry" />
        </mxCell>
        <mxCell id="SX_XCFtSXzHyb8GBrlpH-32" value="" style="ellipse;whiteSpace=wrap;html=1;aspect=fixed;fillColor=#000000;" vertex="1" parent="1">
          <mxGeometry x="451" y="691" width="60" height="60" as="geometry" />
        </mxCell>
        <mxCell id="SX_XCFtSXzHyb8GBrlpH-33" value="" style="ellipse;whiteSpace=wrap;html=1;aspect=fixed;fillColor=#000000;" vertex="1" parent="1">
          <mxGeometry x="451" y="571" width="60" height="60" as="geometry" />
        </mxCell>
        <mxCell id="SX_XCFtSXzHyb8GBrlpH-34" value="" style="ellipse;whiteSpace=wrap;html=1;aspect=fixed;fillColor=#000000;" vertex="1" parent="1">
          <mxGeometry x="451" y="451" width="60" height="60" as="geometry" />
        </mxCell>
        <mxCell id="SX_XCFtSXzHyb8GBrlpH-35" value="" style="ellipse;whiteSpace=wrap;html=1;aspect=fixed;fillColor=none;strokeWidth=3;" vertex="1" parent="1">
          <mxGeometry x="451" y="331" width="60" height="60" as="geometry" />
        </mxCell>
        <mxCell id="SX_XCFtSXzHyb8GBrlpH-36" value="" style="ellipse;whiteSpace=wrap;html=1;aspect=fixed;fillColor=none;strokeWidth=3;" vertex="1" parent="1">
          <mxGeometry x="451" y="211" width="60" height="60" as="geometry" />
        </mxCell>
        <mxCell id="SX_XCFtSXzHyb8GBrlpH-37" value="" style="ellipse;whiteSpace=wrap;html=1;aspect=fixed;fillColor=none;strokeWidth=3;" vertex="1" parent="1">
          <mxGeometry x="451" y="91" width="60" height="60" as="geometry" />
        </mxCell>
        <mxCell id="SX_XCFtSXzHyb8GBrlpH-38" value="" style="ellipse;whiteSpace=wrap;html=1;aspect=fixed;fillColor=none;strokeWidth=3;" vertex="1" parent="1">
          <mxGeometry x="451" y="-29" width="60" height="60" as="geometry" />
        </mxCell>
        <mxCell id="SX_XCFtSXzHyb8GBrlpH-39" value="" style="ellipse;whiteSpace=wrap;html=1;aspect=fixed;fillColor=none;strokeWidth=3;" vertex="1" parent="1">
          <mxGeometry x="451" y="-149" width="60" height="60" as="geometry" />
        </mxCell>
        <mxCell id="SX_XCFtSXzHyb8GBrlpH-40" value="" style="ellipse;whiteSpace=wrap;html=1;aspect=fixed;fillColor=#000000;" vertex="1" parent="1">
          <mxGeometry x="571" y="931" width="60" height="60" as="geometry" />
        </mxCell>
        <mxCell id="SX_XCFtSXzHyb8GBrlpH-41" value="" style="ellipse;whiteSpace=wrap;html=1;aspect=fixed;fillColor=#000000;" vertex="1" parent="1">
          <mxGeometry x="571" y="811" width="60" height="60" as="geometry" />
        </mxCell>
        <mxCell id="SX_XCFtSXzHyb8GBrlpH-42" value="" style="ellipse;whiteSpace=wrap;html=1;aspect=fixed;fillColor=#000000;" vertex="1" parent="1">
          <mxGeometry x="571" y="691" width="60" height="60" as="geometry" />
        </mxCell>
        <mxCell id="SX_XCFtSXzHyb8GBrlpH-43" value="" style="ellipse;whiteSpace=wrap;html=1;aspect=fixed;fillColor=#000000;" vertex="1" parent="1">
          <mxGeometry x="571" y="571" width="60" height="60" as="geometry" />
        </mxCell>
        <mxCell id="SX_XCFtSXzHyb8GBrlpH-44" value="" style="ellipse;whiteSpace=wrap;html=1;aspect=fixed;fillColor=#000000;" vertex="1" parent="1">
          <mxGeometry x="571" y="451" width="60" height="60" as="geometry" />
        </mxCell>
        <mxCell id="SX_XCFtSXzHyb8GBrlpH-45" value="" style="ellipse;whiteSpace=wrap;html=1;aspect=fixed;fillColor=none;strokeWidth=3;" vertex="1" parent="1">
          <mxGeometry x="571" y="331" width="60" height="60" as="geometry" />
        </mxCell>
        <mxCell id="SX_XCFtSXzHyb8GBrlpH-46" value="" style="ellipse;whiteSpace=wrap;html=1;aspect=fixed;fillColor=none;strokeWidth=3;" vertex="1" parent="1">
          <mxGeometry x="571" y="211" width="60" height="60" as="geometry" />
        </mxCell>
        <mxCell id="SX_XCFtSXzHyb8GBrlpH-47" value="" style="ellipse;whiteSpace=wrap;html=1;aspect=fixed;fillColor=none;strokeWidth=3;" vertex="1" parent="1">
          <mxGeometry x="571" y="91" width="60" height="60" as="geometry" />
        </mxCell>
        <mxCell id="SX_XCFtSXzHyb8GBrlpH-48" value="" style="ellipse;whiteSpace=wrap;html=1;aspect=fixed;fillColor=none;strokeWidth=3;" vertex="1" parent="1">
          <mxGeometry x="571" y="-29" width="60" height="60" as="geometry" />
        </mxCell>
        <mxCell id="SX_XCFtSXzHyb8GBrlpH-49" value="" style="ellipse;whiteSpace=wrap;html=1;aspect=fixed;fillColor=none;strokeWidth=3;" vertex="1" parent="1">
          <mxGeometry x="571" y="-149" width="60" height="60" as="geometry" />
        </mxCell>
        <mxCell id="SX_XCFtSXzHyb8GBrlpH-50" value="" style="ellipse;whiteSpace=wrap;html=1;aspect=fixed;fillColor=#000000;" vertex="1" parent="1">
          <mxGeometry x="691" y="931" width="60" height="60" as="geometry" />
        </mxCell>
        <mxCell id="SX_XCFtSXzHyb8GBrlpH-51" value="" style="ellipse;whiteSpace=wrap;html=1;aspect=fixed;fillColor=#000000;" vertex="1" parent="1">
          <mxGeometry x="691" y="811" width="60" height="60" as="geometry" />
        </mxCell>
        <mxCell id="SX_XCFtSXzHyb8GBrlpH-52" value="" style="ellipse;whiteSpace=wrap;html=1;aspect=fixed;fillColor=#000000;" vertex="1" parent="1">
          <mxGeometry x="691" y="691" width="60" height="60" as="geometry" />
        </mxCell>
        <mxCell id="SX_XCFtSXzHyb8GBrlpH-53" value="" style="ellipse;whiteSpace=wrap;html=1;aspect=fixed;fillColor=#000000;" vertex="1" parent="1">
          <mxGeometry x="691" y="571" width="60" height="60" as="geometry" />
        </mxCell>
        <mxCell id="SX_XCFtSXzHyb8GBrlpH-54" value="" style="ellipse;whiteSpace=wrap;html=1;aspect=fixed;fillColor=#000000;" vertex="1" parent="1">
          <mxGeometry x="691" y="451" width="60" height="60" as="geometry" />
        </mxCell>
        <mxCell id="SX_XCFtSXzHyb8GBrlpH-55" value="" style="ellipse;whiteSpace=wrap;html=1;aspect=fixed;fillColor=none;strokeWidth=3;" vertex="1" parent="1">
          <mxGeometry x="691" y="331" width="60" height="60" as="geometry" />
        </mxCell>
        <mxCell id="SX_XCFtSXzHyb8GBrlpH-56" value="" style="ellipse;whiteSpace=wrap;html=1;aspect=fixed;fillColor=none;strokeWidth=3;" vertex="1" parent="1">
          <mxGeometry x="691" y="211" width="60" height="60" as="geometry" />
        </mxCell>
        <mxCell id="SX_XCFtSXzHyb8GBrlpH-57" value="" style="ellipse;whiteSpace=wrap;html=1;aspect=fixed;fillColor=none;strokeWidth=3;" vertex="1" parent="1">
          <mxGeometry x="691" y="91" width="60" height="60" as="geometry" />
        </mxCell>
        <mxCell id="SX_XCFtSXzHyb8GBrlpH-58" value="" style="ellipse;whiteSpace=wrap;html=1;aspect=fixed;fillColor=none;strokeWidth=3;" vertex="1" parent="1">
          <mxGeometry x="691" y="-29" width="60" height="60" as="geometry" />
        </mxCell>
        <mxCell id="SX_XCFtSXzHyb8GBrlpH-59" value="" style="ellipse;whiteSpace=wrap;html=1;aspect=fixed;fillColor=none;strokeWidth=3;" vertex="1" parent="1">
          <mxGeometry x="691" y="-149" width="60" height="60" as="geometry" />
        </mxCell>
        <mxCell id="SX_XCFtSXzHyb8GBrlpH-60" value="" style="ellipse;whiteSpace=wrap;html=1;aspect=fixed;fillColor=#000000;" vertex="1" parent="1">
          <mxGeometry x="811" y="931" width="60" height="60" as="geometry" />
        </mxCell>
        <mxCell id="SX_XCFtSXzHyb8GBrlpH-61" value="" style="ellipse;whiteSpace=wrap;html=1;aspect=fixed;fillColor=#000000;" vertex="1" parent="1">
          <mxGeometry x="811" y="811" width="60" height="60" as="geometry" />
        </mxCell>
        <mxCell id="SX_XCFtSXzHyb8GBrlpH-62" value="" style="ellipse;whiteSpace=wrap;html=1;aspect=fixed;fillColor=#000000;" vertex="1" parent="1">
          <mxGeometry x="811" y="691" width="60" height="60" as="geometry" />
        </mxCell>
        <mxCell id="SX_XCFtSXzHyb8GBrlpH-63" value="" style="ellipse;whiteSpace=wrap;html=1;aspect=fixed;fillColor=#000000;" vertex="1" parent="1">
          <mxGeometry x="811" y="571" width="60" height="60" as="geometry" />
        </mxCell>
        <mxCell id="SX_XCFtSXzHyb8GBrlpH-64" value="" style="ellipse;whiteSpace=wrap;html=1;aspect=fixed;fillColor=#000000;" vertex="1" parent="1">
          <mxGeometry x="811" y="451" width="60" height="60" as="geometry" />
        </mxCell>
        <mxCell id="SX_XCFtSXzHyb8GBrlpH-65" value="" style="ellipse;whiteSpace=wrap;html=1;aspect=fixed;fillColor=none;strokeWidth=3;" vertex="1" parent="1">
          <mxGeometry x="811" y="331" width="60" height="60" as="geometry" />
        </mxCell>
        <mxCell id="SX_XCFtSXzHyb8GBrlpH-66" value="" style="ellipse;whiteSpace=wrap;html=1;aspect=fixed;fillColor=none;strokeWidth=3;" vertex="1" parent="1">
          <mxGeometry x="811" y="211" width="60" height="60" as="geometry" />
        </mxCell>
        <mxCell id="SX_XCFtSXzHyb8GBrlpH-67" value="" style="ellipse;whiteSpace=wrap;html=1;aspect=fixed;fillColor=none;strokeWidth=3;" vertex="1" parent="1">
          <mxGeometry x="811" y="91" width="60" height="60" as="geometry" />
        </mxCell>
        <mxCell id="SX_XCFtSXzHyb8GBrlpH-68" value="" style="ellipse;whiteSpace=wrap;html=1;aspect=fixed;fillColor=none;strokeWidth=3;" vertex="1" parent="1">
          <mxGeometry x="811" y="-29" width="60" height="60" as="geometry" />
        </mxCell>
        <mxCell id="SX_XCFtSXzHyb8GBrlpH-69" value="" style="ellipse;whiteSpace=wrap;html=1;aspect=fixed;fillColor=none;strokeWidth=3;" vertex="1" parent="1">
          <mxGeometry x="811" y="-149" width="60" height="60" as="geometry" />
        </mxCell>
        <mxCell id="SX_XCFtSXzHyb8GBrlpH-70" value="" style="ellipse;whiteSpace=wrap;html=1;aspect=fixed;fillColor=#000000;" vertex="1" parent="1">
          <mxGeometry x="933" y="932" width="60" height="60" as="geometry" />
        </mxCell>
        <mxCell id="SX_XCFtSXzHyb8GBrlpH-71" value="" style="ellipse;whiteSpace=wrap;html=1;aspect=fixed;fillColor=#000000;" vertex="1" parent="1">
          <mxGeometry x="933" y="812" width="60" height="60" as="geometry" />
        </mxCell>
        <mxCell id="SX_XCFtSXzHyb8GBrlpH-72" value="" style="ellipse;whiteSpace=wrap;html=1;aspect=fixed;fillColor=#000000;" vertex="1" parent="1">
          <mxGeometry x="933" y="692" width="60" height="60" as="geometry" />
        </mxCell>
        <mxCell id="SX_XCFtSXzHyb8GBrlpH-73" value="" style="ellipse;whiteSpace=wrap;html=1;aspect=fixed;fillColor=#000000;" vertex="1" parent="1">
          <mxGeometry x="933" y="572" width="60" height="60" as="geometry" />
        </mxCell>
        <mxCell id="SX_XCFtSXzHyb8GBrlpH-74" value="" style="ellipse;whiteSpace=wrap;html=1;aspect=fixed;fillColor=#000000;" vertex="1" parent="1">
          <mxGeometry x="933" y="452" width="60" height="60" as="geometry" />
        </mxCell>
        <mxCell id="SX_XCFtSXzHyb8GBrlpH-75" value="" style="ellipse;whiteSpace=wrap;html=1;aspect=fixed;fillColor=none;strokeWidth=3;" vertex="1" parent="1">
          <mxGeometry x="933" y="332" width="60" height="60" as="geometry" />
        </mxCell>
        <mxCell id="SX_XCFtSXzHyb8GBrlpH-76" value="" style="ellipse;whiteSpace=wrap;html=1;aspect=fixed;fillColor=none;strokeWidth=3;" vertex="1" parent="1">
          <mxGeometry x="933" y="212" width="60" height="60" as="geometry" />
        </mxCell>
        <mxCell id="SX_XCFtSXzHyb8GBrlpH-77" value="" style="ellipse;whiteSpace=wrap;html=1;aspect=fixed;fillColor=none;strokeWidth=3;" vertex="1" parent="1">
          <mxGeometry x="933" y="92" width="60" height="60" as="geometry" />
        </mxCell>
        <mxCell id="SX_XCFtSXzHyb8GBrlpH-78" value="" style="ellipse;whiteSpace=wrap;html=1;aspect=fixed;fillColor=none;strokeWidth=3;" vertex="1" parent="1">
          <mxGeometry x="933" y="-28" width="60" height="60" as="geometry" />
        </mxCell>
        <mxCell id="SX_XCFtSXzHyb8GBrlpH-79" value="" style="ellipse;whiteSpace=wrap;html=1;aspect=fixed;fillColor=none;strokeWidth=3;" vertex="1" parent="1">
          <mxGeometry x="933" y="-148" width="60" height="60" as="geometry" />
        </mxCell>
        <mxCell id="SX_XCFtSXzHyb8GBrlpH-80" value="" style="ellipse;whiteSpace=wrap;html=1;aspect=fixed;fillColor=#000000;" vertex="1" parent="1">
          <mxGeometry x="1053" y="932" width="60" height="60" as="geometry" />
        </mxCell>
        <mxCell id="SX_XCFtSXzHyb8GBrlpH-81" value="" style="ellipse;whiteSpace=wrap;html=1;aspect=fixed;fillColor=#000000;" vertex="1" parent="1">
          <mxGeometry x="1053" y="812" width="60" height="60" as="geometry" />
        </mxCell>
        <mxCell id="SX_XCFtSXzHyb8GBrlpH-82" value="" style="ellipse;whiteSpace=wrap;html=1;aspect=fixed;fillColor=#000000;" vertex="1" parent="1">
          <mxGeometry x="1053" y="692" width="60" height="60" as="geometry" />
        </mxCell>
        <mxCell id="SX_XCFtSXzHyb8GBrlpH-83" value="" style="ellipse;whiteSpace=wrap;html=1;aspect=fixed;fillColor=#000000;" vertex="1" parent="1">
          <mxGeometry x="1053" y="572" width="60" height="60" as="geometry" />
        </mxCell>
        <mxCell id="SX_XCFtSXzHyb8GBrlpH-84" value="" style="ellipse;whiteSpace=wrap;html=1;aspect=fixed;fillColor=#000000;" vertex="1" parent="1">
          <mxGeometry x="1053" y="452" width="60" height="60" as="geometry" />
        </mxCell>
        <mxCell id="SX_XCFtSXzHyb8GBrlpH-85" value="" style="ellipse;whiteSpace=wrap;html=1;aspect=fixed;fillColor=none;strokeWidth=3;" vertex="1" parent="1">
          <mxGeometry x="1053" y="332" width="60" height="60" as="geometry" />
        </mxCell>
        <mxCell id="SX_XCFtSXzHyb8GBrlpH-86" value="" style="ellipse;whiteSpace=wrap;html=1;aspect=fixed;fillColor=none;strokeWidth=3;" vertex="1" parent="1">
          <mxGeometry x="1053" y="212" width="60" height="60" as="geometry" />
        </mxCell>
        <mxCell id="SX_XCFtSXzHyb8GBrlpH-87" value="" style="ellipse;whiteSpace=wrap;html=1;aspect=fixed;fillColor=none;strokeWidth=3;" vertex="1" parent="1">
          <mxGeometry x="1053" y="92" width="60" height="60" as="geometry" />
        </mxCell>
        <mxCell id="SX_XCFtSXzHyb8GBrlpH-88" value="" style="ellipse;whiteSpace=wrap;html=1;aspect=fixed;fillColor=none;strokeWidth=3;" vertex="1" parent="1">
          <mxGeometry x="1053" y="-28" width="60" height="60" as="geometry" />
        </mxCell>
        <mxCell id="SX_XCFtSXzHyb8GBrlpH-89" value="" style="ellipse;whiteSpace=wrap;html=1;aspect=fixed;fillColor=none;strokeWidth=3;" vertex="1" parent="1">
          <mxGeometry x="1053" y="-148" width="60" height="60" as="geometry" />
        </mxCell>
        <mxCell id="SX_XCFtSXzHyb8GBrlpH-90" value="" style="ellipse;whiteSpace=wrap;html=1;aspect=fixed;fillColor=#000000;" vertex="1" parent="1">
          <mxGeometry x="1170" y="930" width="60" height="60" as="geometry" />
        </mxCell>
        <mxCell id="SX_XCFtSXzHyb8GBrlpH-91" value="" style="ellipse;whiteSpace=wrap;html=1;aspect=fixed;fillColor=#000000;" vertex="1" parent="1">
          <mxGeometry x="1170" y="810" width="60" height="60" as="geometry" />
        </mxCell>
        <mxCell id="SX_XCFtSXzHyb8GBrlpH-92" value="" style="ellipse;whiteSpace=wrap;html=1;aspect=fixed;fillColor=#000000;" vertex="1" parent="1">
          <mxGeometry x="1170" y="690" width="60" height="60" as="geometry" />
        </mxCell>
        <mxCell id="SX_XCFtSXzHyb8GBrlpH-93" value="" style="ellipse;whiteSpace=wrap;html=1;aspect=fixed;fillColor=#000000;" vertex="1" parent="1">
          <mxGeometry x="1170" y="570" width="60" height="60" as="geometry" />
        </mxCell>
        <mxCell id="SX_XCFtSXzHyb8GBrlpH-94" value="" style="ellipse;whiteSpace=wrap;html=1;aspect=fixed;fillColor=#000000;" vertex="1" parent="1">
          <mxGeometry x="1170" y="450" width="60" height="60" as="geometry" />
        </mxCell>
        <mxCell id="SX_XCFtSXzHyb8GBrlpH-95" value="" style="ellipse;whiteSpace=wrap;html=1;aspect=fixed;fillColor=none;strokeWidth=3;" vertex="1" parent="1">
          <mxGeometry x="1170" y="330" width="60" height="60" as="geometry" />
        </mxCell>
        <mxCell id="SX_XCFtSXzHyb8GBrlpH-96" value="" style="ellipse;whiteSpace=wrap;html=1;aspect=fixed;fillColor=none;strokeWidth=3;" vertex="1" parent="1">
          <mxGeometry x="1170" y="210" width="60" height="60" as="geometry" />
        </mxCell>
        <mxCell id="SX_XCFtSXzHyb8GBrlpH-97" value="" style="ellipse;whiteSpace=wrap;html=1;aspect=fixed;fillColor=none;strokeWidth=3;" vertex="1" parent="1">
          <mxGeometry x="1170" y="90" width="60" height="60" as="geometry" />
        </mxCell>
        <mxCell id="SX_XCFtSXzHyb8GBrlpH-98" value="" style="ellipse;whiteSpace=wrap;html=1;aspect=fixed;fillColor=none;strokeWidth=3;" vertex="1" parent="1">
          <mxGeometry x="1170" y="-30" width="60" height="60" as="geometry" />
        </mxCell>
        <mxCell id="SX_XCFtSXzHyb8GBrlpH-99" value="" style="ellipse;whiteSpace=wrap;html=1;aspect=fixed;fillColor=none;strokeWidth=3;" vertex="1" parent="1">
          <mxGeometry x="1170" y="-150" width="60" height="60" as="geometry" />
        </mxCell>
        <mxCell id="SX_XCFtSXzHyb8GBrlpH-100" value="" style="ellipse;whiteSpace=wrap;html=1;aspect=fixed;fillColor=#000000;" vertex="1" parent="1">
          <mxGeometry x="1290" y="930" width="60" height="60" as="geometry" />
        </mxCell>
        <mxCell id="SX_XCFtSXzHyb8GBrlpH-101" value="" style="ellipse;whiteSpace=wrap;html=1;aspect=fixed;fillColor=#000000;" vertex="1" parent="1">
          <mxGeometry x="1290" y="810" width="60" height="60" as="geometry" />
        </mxCell>
        <mxCell id="SX_XCFtSXzHyb8GBrlpH-102" value="" style="ellipse;whiteSpace=wrap;html=1;aspect=fixed;fillColor=#000000;" vertex="1" parent="1">
          <mxGeometry x="1290" y="690" width="60" height="60" as="geometry" />
        </mxCell>
        <mxCell id="SX_XCFtSXzHyb8GBrlpH-103" value="" style="ellipse;whiteSpace=wrap;html=1;aspect=fixed;fillColor=#000000;" vertex="1" parent="1">
          <mxGeometry x="1290" y="570" width="60" height="60" as="geometry" />
        </mxCell>
        <mxCell id="SX_XCFtSXzHyb8GBrlpH-104" value="" style="ellipse;whiteSpace=wrap;html=1;aspect=fixed;fillColor=#000000;" vertex="1" parent="1">
          <mxGeometry x="1290" y="450" width="60" height="60" as="geometry" />
        </mxCell>
        <mxCell id="SX_XCFtSXzHyb8GBrlpH-105" value="" style="ellipse;whiteSpace=wrap;html=1;aspect=fixed;fillColor=none;strokeWidth=3;" vertex="1" parent="1">
          <mxGeometry x="1290" y="330" width="60" height="60" as="geometry" />
        </mxCell>
        <mxCell id="SX_XCFtSXzHyb8GBrlpH-106" value="" style="ellipse;whiteSpace=wrap;html=1;aspect=fixed;fillColor=none;strokeWidth=3;" vertex="1" parent="1">
          <mxGeometry x="1290" y="210" width="60" height="60" as="geometry" />
        </mxCell>
        <mxCell id="SX_XCFtSXzHyb8GBrlpH-107" value="" style="ellipse;whiteSpace=wrap;html=1;aspect=fixed;fillColor=none;strokeWidth=3;" vertex="1" parent="1">
          <mxGeometry x="1290" y="90" width="60" height="60" as="geometry" />
        </mxCell>
        <mxCell id="SX_XCFtSXzHyb8GBrlpH-108" value="" style="ellipse;whiteSpace=wrap;html=1;aspect=fixed;fillColor=none;strokeWidth=3;" vertex="1" parent="1">
          <mxGeometry x="1290" y="-30" width="60" height="60" as="geometry" />
        </mxCell>
        <mxCell id="SX_XCFtSXzHyb8GBrlpH-109" value="" style="ellipse;whiteSpace=wrap;html=1;aspect=fixed;fillColor=none;strokeWidth=3;" vertex="1" parent="1">
          <mxGeometry x="1290" y="-150" width="60" height="60" as="geometry" />
        </mxCell>
        <mxCell id="SX_XCFtSXzHyb8GBrlpH-110" value="&lt;font size=&quot;1&quot; style=&quot;&quot;&gt;&lt;b style=&quot;font-size: 30px;&quot;&gt;2&lt;/b&gt;&lt;/font&gt;" style="text;html=1;strokeColor=none;fillColor=none;align=center;verticalAlign=middle;whiteSpace=wrap;rounded=0;" vertex="1" parent="1">
          <mxGeometry x="10" y="827" width="60" height="30" as="geometry" />
        </mxCell>
        <mxCell id="SX_XCFtSXzHyb8GBrlpH-111" value="&lt;font size=&quot;1&quot; style=&quot;&quot;&gt;&lt;b style=&quot;font-size: 30px;&quot;&gt;3&lt;/b&gt;&lt;/font&gt;" style="text;html=1;strokeColor=none;fillColor=none;align=center;verticalAlign=middle;whiteSpace=wrap;rounded=0;" vertex="1" parent="1">
          <mxGeometry x="10" y="707" width="60" height="30" as="geometry" />
        </mxCell>
        <mxCell id="SX_XCFtSXzHyb8GBrlpH-112" value="&lt;font size=&quot;1&quot; style=&quot;&quot;&gt;&lt;b style=&quot;font-size: 30px;&quot;&gt;4&lt;/b&gt;&lt;/font&gt;" style="text;html=1;strokeColor=none;fillColor=none;align=center;verticalAlign=middle;whiteSpace=wrap;rounded=0;" vertex="1" parent="1">
          <mxGeometry x="10" y="587" width="60" height="30" as="geometry" />
        </mxCell>
        <mxCell id="SX_XCFtSXzHyb8GBrlpH-113" value="&lt;font size=&quot;1&quot; style=&quot;&quot;&gt;&lt;b style=&quot;font-size: 30px;&quot;&gt;5&lt;/b&gt;&lt;/font&gt;" style="text;html=1;strokeColor=none;fillColor=none;align=center;verticalAlign=middle;whiteSpace=wrap;rounded=0;" vertex="1" parent="1">
          <mxGeometry x="10" y="467" width="60" height="30" as="geometry" />
        </mxCell>
        <mxCell id="SX_XCFtSXzHyb8GBrlpH-114" value="&lt;font size=&quot;1&quot; style=&quot;&quot;&gt;&lt;b style=&quot;font-size: 30px;&quot;&gt;6&lt;/b&gt;&lt;/font&gt;" style="text;html=1;strokeColor=none;fillColor=none;align=center;verticalAlign=middle;whiteSpace=wrap;rounded=0;" vertex="1" parent="1">
          <mxGeometry x="10" y="347" width="60" height="30" as="geometry" />
        </mxCell>
        <mxCell id="SX_XCFtSXzHyb8GBrlpH-115" value="&lt;font size=&quot;1&quot; style=&quot;&quot;&gt;&lt;b style=&quot;font-size: 30px;&quot;&gt;7&lt;/b&gt;&lt;/font&gt;" style="text;html=1;strokeColor=none;fillColor=none;align=center;verticalAlign=middle;whiteSpace=wrap;rounded=0;" vertex="1" parent="1">
          <mxGeometry x="10" y="227" width="60" height="30" as="geometry" />
        </mxCell>
        <mxCell id="SX_XCFtSXzHyb8GBrlpH-116" value="&lt;font size=&quot;1&quot; style=&quot;&quot;&gt;&lt;b style=&quot;font-size: 30px;&quot;&gt;8&lt;/b&gt;&lt;/font&gt;" style="text;html=1;strokeColor=none;fillColor=none;align=center;verticalAlign=middle;whiteSpace=wrap;rounded=0;" vertex="1" parent="1">
          <mxGeometry x="10" y="107" width="60" height="30" as="geometry" />
        </mxCell>
        <mxCell id="SX_XCFtSXzHyb8GBrlpH-117" value="&lt;font size=&quot;1&quot; style=&quot;&quot;&gt;&lt;b style=&quot;font-size: 30px;&quot;&gt;9&lt;/b&gt;&lt;/font&gt;" style="text;html=1;strokeColor=none;fillColor=none;align=center;verticalAlign=middle;whiteSpace=wrap;rounded=0;" vertex="1" parent="1">
          <mxGeometry x="10" y="-13" width="60" height="30" as="geometry" />
        </mxCell>
        <mxCell id="SX_XCFtSXzHyb8GBrlpH-118" value="&lt;font size=&quot;1&quot; style=&quot;&quot;&gt;&lt;b style=&quot;font-size: 30px;&quot;&gt;10&lt;/b&gt;&lt;/font&gt;" style="text;html=1;strokeColor=none;fillColor=none;align=center;verticalAlign=middle;whiteSpace=wrap;rounded=0;" vertex="1" parent="1">
          <mxGeometry x="10" y="-133" width="60" height="30" as="geometry" />
        </mxCell>
        <mxCell id="SX_XCFtSXzHyb8GBrlpH-120" value="&lt;font size=&quot;1&quot; style=&quot;&quot;&gt;&lt;b style=&quot;font-size: 30px;&quot;&gt;1&lt;/b&gt;&lt;/font&gt;" style="text;html=1;strokeColor=none;fillColor=none;align=center;verticalAlign=middle;whiteSpace=wrap;rounded=0;" vertex="1" parent="1">
          <mxGeometry x="209" y="1100" width="60" height="30" as="geometry" />
        </mxCell>
        <mxCell id="SX_XCFtSXzHyb8GBrlpH-121" value="&lt;font size=&quot;1&quot; style=&quot;&quot;&gt;&lt;b style=&quot;font-size: 30px;&quot;&gt;2&lt;/b&gt;&lt;/font&gt;" style="text;html=1;strokeColor=none;fillColor=none;align=center;verticalAlign=middle;whiteSpace=wrap;rounded=0;" vertex="1" parent="1">
          <mxGeometry x="329" y="1105" width="60" height="20" as="geometry" />
        </mxCell>
        <mxCell id="SX_XCFtSXzHyb8GBrlpH-122" value="&lt;font size=&quot;1&quot; style=&quot;&quot;&gt;&lt;b style=&quot;font-size: 30px;&quot;&gt;3&lt;/b&gt;&lt;/font&gt;" style="text;html=1;strokeColor=none;fillColor=none;align=center;verticalAlign=middle;whiteSpace=wrap;rounded=0;" vertex="1" parent="1">
          <mxGeometry x="445.5" y="1105" width="71" height="20" as="geometry" />
        </mxCell>
        <mxCell id="SX_XCFtSXzHyb8GBrlpH-123" value="&lt;font size=&quot;1&quot; style=&quot;&quot;&gt;&lt;b style=&quot;font-size: 30px;&quot;&gt;4&lt;/b&gt;&lt;/font&gt;" style="text;html=1;strokeColor=none;fillColor=none;align=center;verticalAlign=middle;whiteSpace=wrap;rounded=0;" vertex="1" parent="1">
          <mxGeometry x="570" y="1105" width="60" height="20" as="geometry" />
        </mxCell>
        <mxCell id="SX_XCFtSXzHyb8GBrlpH-125" value="&lt;font size=&quot;1&quot; style=&quot;&quot;&gt;&lt;b style=&quot;font-size: 30px;&quot;&gt;5&lt;/b&gt;&lt;/font&gt;" style="text;html=1;strokeColor=none;fillColor=none;align=center;verticalAlign=middle;whiteSpace=wrap;rounded=0;" vertex="1" parent="1">
          <mxGeometry x="691" y="1105" width="60" height="20" as="geometry" />
        </mxCell>
        <mxCell id="SX_XCFtSXzHyb8GBrlpH-126" value="&lt;font size=&quot;1&quot; style=&quot;&quot;&gt;&lt;b style=&quot;font-size: 30px;&quot;&gt;6&lt;/b&gt;&lt;/font&gt;" style="text;html=1;strokeColor=none;fillColor=none;align=center;verticalAlign=middle;whiteSpace=wrap;rounded=0;" vertex="1" parent="1">
          <mxGeometry x="811" y="1105" width="60" height="20" as="geometry" />
        </mxCell>
        <mxCell id="SX_XCFtSXzHyb8GBrlpH-127" value="&lt;font size=&quot;1&quot; style=&quot;&quot;&gt;&lt;b style=&quot;font-size: 30px;&quot;&gt;7&lt;/b&gt;&lt;/font&gt;" style="text;html=1;strokeColor=none;fillColor=none;align=center;verticalAlign=middle;whiteSpace=wrap;rounded=0;" vertex="1" parent="1">
          <mxGeometry x="933" y="1105" width="60" height="20" as="geometry" />
        </mxCell>
        <mxCell id="SX_XCFtSXzHyb8GBrlpH-128" value="&lt;font size=&quot;1&quot; style=&quot;&quot;&gt;&lt;b style=&quot;font-size: 30px;&quot;&gt;8&lt;/b&gt;&lt;/font&gt;" style="text;html=1;strokeColor=none;fillColor=none;align=center;verticalAlign=middle;whiteSpace=wrap;rounded=0;" vertex="1" parent="1">
          <mxGeometry x="1053" y="1105" width="60" height="20" as="geometry" />
        </mxCell>
        <mxCell id="SX_XCFtSXzHyb8GBrlpH-129" value="&lt;font size=&quot;1&quot; style=&quot;&quot;&gt;&lt;b style=&quot;font-size: 30px;&quot;&gt;9&lt;/b&gt;&lt;/font&gt;" style="text;html=1;strokeColor=none;fillColor=none;align=center;verticalAlign=middle;whiteSpace=wrap;rounded=0;" vertex="1" parent="1">
          <mxGeometry x="1170" y="1105" width="60" height="20" as="geometry" />
        </mxCell>
        <mxCell id="SX_XCFtSXzHyb8GBrlpH-130" value="&lt;font size=&quot;1&quot; style=&quot;&quot;&gt;&lt;b style=&quot;font-size: 30px;&quot;&gt;10&lt;/b&gt;&lt;/font&gt;" style="text;html=1;strokeColor=none;fillColor=none;align=center;verticalAlign=middle;whiteSpace=wrap;rounded=0;" vertex="1" parent="1">
          <mxGeometry x="1290" y="1105" width="60" height="20" as="geometry" />
        </mxCell>
        <mxCell id="SX_XCFtSXzHyb8GBrlpH-139" style="edgeStyle=isometricEdgeStyle;rounded=0;orthogonalLoop=1;jettySize=auto;html=1;exitX=0.978;exitY=0.673;exitDx=0;exitDy=0;entryX=0;entryY=0.5;entryDx=0;entryDy=0;exitPerimeter=0;strokeWidth=3;fillColor=#0050ef;strokeColor=#001DBC;" edge="1" parent="1">
          <mxGeometry relative="1" as="geometry">
            <mxPoint x="387" y="369" as="sourcePoint" />
            <mxPoint x="570" y="360" as="targetPoint" />
            <Array as="points">
              <mxPoint x="439" y="399" />
            </Array>
          </mxGeometry>
        </mxCell>
        <mxCell id="SX_XCFtSXzHyb8GBrlpH-140" style="edgeStyle=isometricEdgeStyle;rounded=0;orthogonalLoop=1;jettySize=auto;html=1;exitX=0.978;exitY=0.673;exitDx=0;exitDy=0;entryX=0;entryY=0.5;entryDx=0;entryDy=0;exitPerimeter=0;strokeWidth=3;fillColor=#0050ef;strokeColor=#001DBC;" edge="1" parent="1">
          <mxGeometry relative="1" as="geometry">
            <mxPoint x="508.5" y="369" as="sourcePoint" />
            <mxPoint x="691.5" y="360" as="targetPoint" />
            <Array as="points">
              <mxPoint x="560.5" y="399" />
            </Array>
          </mxGeometry>
        </mxCell>
        <mxCell id="SX_XCFtSXzHyb8GBrlpH-141" style="edgeStyle=isometricEdgeStyle;rounded=0;orthogonalLoop=1;jettySize=auto;html=1;exitX=0.978;exitY=0.673;exitDx=0;exitDy=0;entryX=0;entryY=0.5;entryDx=0;entryDy=0;exitPerimeter=0;strokeWidth=3;fillColor=#0050ef;strokeColor=#001DBC;" edge="1" parent="1">
          <mxGeometry relative="1" as="geometry">
            <mxPoint x="628" y="369" as="sourcePoint" />
            <mxPoint x="811" y="360" as="targetPoint" />
            <Array as="points">
              <mxPoint x="680" y="399" />
            </Array>
          </mxGeometry>
        </mxCell>
        <mxCell id="SX_XCFtSXzHyb8GBrlpH-142" style="edgeStyle=isometricEdgeStyle;rounded=0;orthogonalLoop=1;jettySize=auto;html=1;exitX=0.978;exitY=0.673;exitDx=0;exitDy=0;entryX=0;entryY=0.5;entryDx=0;entryDy=0;exitPerimeter=0;strokeWidth=3;fillColor=#0050ef;strokeColor=#001DBC;" edge="1" parent="1">
          <mxGeometry relative="1" as="geometry">
            <mxPoint x="749.5" y="369" as="sourcePoint" />
            <mxPoint x="932.5" y="360" as="targetPoint" />
            <Array as="points">
              <mxPoint x="801.5" y="399" />
            </Array>
          </mxGeometry>
        </mxCell>
        <mxCell id="SX_XCFtSXzHyb8GBrlpH-143" style="edgeStyle=isometricEdgeStyle;rounded=0;orthogonalLoop=1;jettySize=auto;html=1;exitX=0.978;exitY=0.673;exitDx=0;exitDy=0;entryX=0;entryY=0.5;entryDx=0;entryDy=0;exitPerimeter=0;strokeWidth=3;fillColor=#0050ef;strokeColor=#001DBC;" edge="1" parent="1">
          <mxGeometry relative="1" as="geometry">
            <mxPoint x="871" y="369" as="sourcePoint" />
            <mxPoint x="1054" y="360" as="targetPoint" />
            <Array as="points">
              <mxPoint x="923" y="399" />
            </Array>
          </mxGeometry>
        </mxCell>
        <mxCell id="SX_XCFtSXzHyb8GBrlpH-144" style="edgeStyle=isometricEdgeStyle;rounded=0;orthogonalLoop=1;jettySize=auto;html=1;exitX=0.978;exitY=0.673;exitDx=0;exitDy=0;entryX=0;entryY=0.5;entryDx=0;entryDy=0;exitPerimeter=0;strokeWidth=3;fillColor=#0050ef;strokeColor=#001DBC;" edge="1" parent="1">
          <mxGeometry relative="1" as="geometry">
            <mxPoint x="987" y="379" as="sourcePoint" />
            <mxPoint x="1170" y="370" as="targetPoint" />
            <Array as="points">
              <mxPoint x="1039" y="409" />
            </Array>
          </mxGeometry>
        </mxCell>
        <mxCell id="SX_XCFtSXzHyb8GBrlpH-145" style="edgeStyle=isometricEdgeStyle;rounded=0;orthogonalLoop=1;jettySize=auto;html=1;exitX=0.978;exitY=0.673;exitDx=0;exitDy=0;entryX=0;entryY=0.5;entryDx=0;entryDy=0;exitPerimeter=0;strokeWidth=3;fillColor=#0050ef;strokeColor=#001DBC;" edge="1" parent="1">
          <mxGeometry relative="1" as="geometry">
            <mxPoint x="1108.5" y="369" as="sourcePoint" />
            <mxPoint x="1291.5" y="360" as="targetPoint" />
            <Array as="points">
              <mxPoint x="1160.5" y="399" />
            </Array>
          </mxGeometry>
        </mxCell>
        <mxCell id="SX_XCFtSXzHyb8GBrlpH-146" style="edgeStyle=isometricEdgeStyle;rounded=0;orthogonalLoop=1;jettySize=auto;html=1;exitX=0.978;exitY=0.673;exitDx=0;exitDy=0;entryX=0;entryY=0.5;entryDx=0;entryDy=0;exitPerimeter=0;strokeWidth=3;fillColor=#0050ef;strokeColor=#001DBC;" edge="1" parent="1">
          <mxGeometry relative="1" as="geometry">
            <mxPoint x="268" y="254" as="sourcePoint" />
            <mxPoint x="451" y="245" as="targetPoint" />
            <Array as="points">
              <mxPoint x="320" y="284" />
            </Array>
          </mxGeometry>
        </mxCell>
        <mxCell id="SX_XCFtSXzHyb8GBrlpH-147" style="edgeStyle=isometricEdgeStyle;rounded=0;orthogonalLoop=1;jettySize=auto;html=1;exitX=0.978;exitY=0.673;exitDx=0;exitDy=0;entryX=0;entryY=0.5;entryDx=0;entryDy=0;exitPerimeter=0;strokeWidth=3;fillColor=#0050ef;strokeColor=#001DBC;" edge="1" parent="1">
          <mxGeometry relative="1" as="geometry">
            <mxPoint x="387" y="253" as="sourcePoint" />
            <mxPoint x="570" y="244" as="targetPoint" />
            <Array as="points">
              <mxPoint x="439" y="283" />
            </Array>
          </mxGeometry>
        </mxCell>
        <mxCell id="SX_XCFtSXzHyb8GBrlpH-148" style="edgeStyle=isometricEdgeStyle;rounded=0;orthogonalLoop=1;jettySize=auto;html=1;exitX=0.978;exitY=0.673;exitDx=0;exitDy=0;entryX=0;entryY=0.5;entryDx=0;entryDy=0;exitPerimeter=0;strokeWidth=3;fillColor=#0050ef;strokeColor=#001DBC;" edge="1" parent="1">
          <mxGeometry relative="1" as="geometry">
            <mxPoint x="508.5" y="253" as="sourcePoint" />
            <mxPoint x="691.5" y="244" as="targetPoint" />
            <Array as="points">
              <mxPoint x="560.5" y="283" />
            </Array>
          </mxGeometry>
        </mxCell>
        <mxCell id="SX_XCFtSXzHyb8GBrlpH-149" style="edgeStyle=isometricEdgeStyle;rounded=0;orthogonalLoop=1;jettySize=auto;html=1;exitX=0.978;exitY=0.673;exitDx=0;exitDy=0;entryX=0;entryY=0.5;entryDx=0;entryDy=0;exitPerimeter=0;strokeWidth=3;fillColor=#0050ef;strokeColor=#001DBC;" edge="1" parent="1">
          <mxGeometry relative="1" as="geometry">
            <mxPoint x="628" y="253" as="sourcePoint" />
            <mxPoint x="811" y="244" as="targetPoint" />
            <Array as="points">
              <mxPoint x="680" y="283" />
            </Array>
          </mxGeometry>
        </mxCell>
        <mxCell id="SX_XCFtSXzHyb8GBrlpH-150" style="edgeStyle=isometricEdgeStyle;rounded=0;orthogonalLoop=1;jettySize=auto;html=1;exitX=0.978;exitY=0.673;exitDx=0;exitDy=0;entryX=0;entryY=0.5;entryDx=0;entryDy=0;exitPerimeter=0;strokeWidth=3;fillColor=#0050ef;strokeColor=#001DBC;" edge="1" parent="1">
          <mxGeometry relative="1" as="geometry">
            <mxPoint x="749.5" y="253" as="sourcePoint" />
            <mxPoint x="932.5" y="244" as="targetPoint" />
            <Array as="points">
              <mxPoint x="801.5" y="283" />
            </Array>
          </mxGeometry>
        </mxCell>
        <mxCell id="SX_XCFtSXzHyb8GBrlpH-151" style="edgeStyle=isometricEdgeStyle;rounded=0;orthogonalLoop=1;jettySize=auto;html=1;exitX=0.978;exitY=0.673;exitDx=0;exitDy=0;entryX=0;entryY=0.5;entryDx=0;entryDy=0;exitPerimeter=0;strokeWidth=3;fillColor=#0050ef;strokeColor=#001DBC;" edge="1" parent="1">
          <mxGeometry relative="1" as="geometry">
            <mxPoint x="871" y="253" as="sourcePoint" />
            <mxPoint x="1054" y="244" as="targetPoint" />
            <Array as="points">
              <mxPoint x="923" y="283" />
            </Array>
          </mxGeometry>
        </mxCell>
        <mxCell id="SX_XCFtSXzHyb8GBrlpH-152" style="edgeStyle=isometricEdgeStyle;rounded=0;orthogonalLoop=1;jettySize=auto;html=1;exitX=0.978;exitY=0.673;exitDx=0;exitDy=0;entryX=0;entryY=0.5;entryDx=0;entryDy=0;exitPerimeter=0;strokeWidth=3;fillColor=#0050ef;strokeColor=#001DBC;" edge="1" parent="1">
          <mxGeometry relative="1" as="geometry">
            <mxPoint x="987" y="263" as="sourcePoint" />
            <mxPoint x="1170" y="254" as="targetPoint" />
            <Array as="points">
              <mxPoint x="1039" y="293" />
            </Array>
          </mxGeometry>
        </mxCell>
        <mxCell id="SX_XCFtSXzHyb8GBrlpH-153" style="edgeStyle=isometricEdgeStyle;rounded=0;orthogonalLoop=1;jettySize=auto;html=1;exitX=0.978;exitY=0.673;exitDx=0;exitDy=0;entryX=0;entryY=0.5;entryDx=0;entryDy=0;exitPerimeter=0;strokeWidth=3;fillColor=#0050ef;strokeColor=#001DBC;" edge="1" parent="1">
          <mxGeometry relative="1" as="geometry">
            <mxPoint x="1108.5" y="253" as="sourcePoint" />
            <mxPoint x="1291.5" y="244" as="targetPoint" />
            <Array as="points">
              <mxPoint x="1160.5" y="283" />
            </Array>
          </mxGeometry>
        </mxCell>
        <mxCell id="SX_XCFtSXzHyb8GBrlpH-154" style="edgeStyle=isometricEdgeStyle;rounded=0;orthogonalLoop=1;jettySize=auto;html=1;exitX=0.978;exitY=0.673;exitDx=0;exitDy=0;entryX=0;entryY=0.5;entryDx=0;entryDy=0;exitPerimeter=0;strokeWidth=3;fillColor=#0050ef;strokeColor=#001DBC;" edge="1" parent="1">
          <mxGeometry relative="1" as="geometry">
            <mxPoint x="269" y="133" as="sourcePoint" />
            <mxPoint x="452" y="124" as="targetPoint" />
            <Array as="points">
              <mxPoint x="321" y="163" />
            </Array>
          </mxGeometry>
        </mxCell>
        <mxCell id="SX_XCFtSXzHyb8GBrlpH-155" style="edgeStyle=isometricEdgeStyle;rounded=0;orthogonalLoop=1;jettySize=auto;html=1;exitX=0.978;exitY=0.673;exitDx=0;exitDy=0;entryX=0;entryY=0.5;entryDx=0;entryDy=0;exitPerimeter=0;strokeWidth=3;fillColor=#0050ef;strokeColor=#001DBC;" edge="1" parent="1">
          <mxGeometry relative="1" as="geometry">
            <mxPoint x="388" y="132" as="sourcePoint" />
            <mxPoint x="571" y="123" as="targetPoint" />
            <Array as="points">
              <mxPoint x="440" y="162" />
            </Array>
          </mxGeometry>
        </mxCell>
        <mxCell id="SX_XCFtSXzHyb8GBrlpH-156" style="edgeStyle=isometricEdgeStyle;rounded=0;orthogonalLoop=1;jettySize=auto;html=1;exitX=0.978;exitY=0.673;exitDx=0;exitDy=0;entryX=0;entryY=0.5;entryDx=0;entryDy=0;exitPerimeter=0;strokeWidth=3;fillColor=#0050ef;strokeColor=#001DBC;" edge="1" parent="1">
          <mxGeometry relative="1" as="geometry">
            <mxPoint x="509.5" y="132" as="sourcePoint" />
            <mxPoint x="692.5" y="123" as="targetPoint" />
            <Array as="points">
              <mxPoint x="561.5" y="162" />
            </Array>
          </mxGeometry>
        </mxCell>
        <mxCell id="SX_XCFtSXzHyb8GBrlpH-157" style="edgeStyle=isometricEdgeStyle;rounded=0;orthogonalLoop=1;jettySize=auto;html=1;exitX=0.978;exitY=0.673;exitDx=0;exitDy=0;entryX=0;entryY=0.5;entryDx=0;entryDy=0;exitPerimeter=0;strokeWidth=3;fillColor=#0050ef;strokeColor=#001DBC;" edge="1" parent="1">
          <mxGeometry relative="1" as="geometry">
            <mxPoint x="629" y="132" as="sourcePoint" />
            <mxPoint x="812" y="123" as="targetPoint" />
            <Array as="points">
              <mxPoint x="681" y="162" />
            </Array>
          </mxGeometry>
        </mxCell>
        <mxCell id="SX_XCFtSXzHyb8GBrlpH-158" style="edgeStyle=isometricEdgeStyle;rounded=0;orthogonalLoop=1;jettySize=auto;html=1;exitX=0.978;exitY=0.673;exitDx=0;exitDy=0;entryX=0;entryY=0.5;entryDx=0;entryDy=0;exitPerimeter=0;strokeWidth=3;fillColor=#0050ef;strokeColor=#001DBC;" edge="1" parent="1">
          <mxGeometry relative="1" as="geometry">
            <mxPoint x="750.5" y="132" as="sourcePoint" />
            <mxPoint x="933.5" y="123" as="targetPoint" />
            <Array as="points">
              <mxPoint x="802.5" y="162" />
            </Array>
          </mxGeometry>
        </mxCell>
        <mxCell id="SX_XCFtSXzHyb8GBrlpH-159" style="edgeStyle=isometricEdgeStyle;rounded=0;orthogonalLoop=1;jettySize=auto;html=1;exitX=0.978;exitY=0.673;exitDx=0;exitDy=0;entryX=0;entryY=0.5;entryDx=0;entryDy=0;exitPerimeter=0;strokeWidth=3;fillColor=#0050ef;strokeColor=#001DBC;" edge="1" parent="1">
          <mxGeometry relative="1" as="geometry">
            <mxPoint x="872" y="132" as="sourcePoint" />
            <mxPoint x="1055" y="123" as="targetPoint" />
            <Array as="points">
              <mxPoint x="924" y="162" />
            </Array>
          </mxGeometry>
        </mxCell>
        <mxCell id="SX_XCFtSXzHyb8GBrlpH-160" style="edgeStyle=isometricEdgeStyle;rounded=0;orthogonalLoop=1;jettySize=auto;html=1;exitX=0.978;exitY=0.673;exitDx=0;exitDy=0;entryX=0;entryY=0.5;entryDx=0;entryDy=0;exitPerimeter=0;strokeWidth=3;fillColor=#0050ef;strokeColor=#001DBC;" edge="1" parent="1">
          <mxGeometry relative="1" as="geometry">
            <mxPoint x="988" y="142" as="sourcePoint" />
            <mxPoint x="1171" y="133" as="targetPoint" />
            <Array as="points">
              <mxPoint x="1040" y="172" />
            </Array>
          </mxGeometry>
        </mxCell>
        <mxCell id="SX_XCFtSXzHyb8GBrlpH-161" style="edgeStyle=isometricEdgeStyle;rounded=0;orthogonalLoop=1;jettySize=auto;html=1;exitX=0.978;exitY=0.673;exitDx=0;exitDy=0;entryX=0;entryY=0.5;entryDx=0;entryDy=0;exitPerimeter=0;strokeWidth=3;fillColor=#0050ef;strokeColor=#001DBC;" edge="1" parent="1">
          <mxGeometry relative="1" as="geometry">
            <mxPoint x="1109.5" y="132" as="sourcePoint" />
            <mxPoint x="1292.5" y="123" as="targetPoint" />
            <Array as="points">
              <mxPoint x="1161.5" y="162" />
            </Array>
          </mxGeometry>
        </mxCell>
        <mxCell id="SX_XCFtSXzHyb8GBrlpH-162" style="edgeStyle=isometricEdgeStyle;rounded=0;orthogonalLoop=1;jettySize=auto;html=1;exitX=0.978;exitY=0.673;exitDx=0;exitDy=0;entryX=0;entryY=0.5;entryDx=0;entryDy=0;exitPerimeter=0;strokeWidth=3;fillColor=#0050ef;strokeColor=#001DBC;" edge="1" parent="1">
          <mxGeometry relative="1" as="geometry">
            <mxPoint x="268" y="15" as="sourcePoint" />
            <mxPoint x="451" y="6" as="targetPoint" />
            <Array as="points">
              <mxPoint x="320" y="45" />
            </Array>
          </mxGeometry>
        </mxCell>
        <mxCell id="SX_XCFtSXzHyb8GBrlpH-163" style="edgeStyle=isometricEdgeStyle;rounded=0;orthogonalLoop=1;jettySize=auto;html=1;exitX=0.978;exitY=0.673;exitDx=0;exitDy=0;entryX=0;entryY=0.5;entryDx=0;entryDy=0;exitPerimeter=0;strokeWidth=3;fillColor=#0050ef;strokeColor=#001DBC;" edge="1" parent="1">
          <mxGeometry relative="1" as="geometry">
            <mxPoint x="387" y="14" as="sourcePoint" />
            <mxPoint x="570" y="5" as="targetPoint" />
            <Array as="points">
              <mxPoint x="439" y="44" />
            </Array>
          </mxGeometry>
        </mxCell>
        <mxCell id="SX_XCFtSXzHyb8GBrlpH-164" style="edgeStyle=isometricEdgeStyle;rounded=0;orthogonalLoop=1;jettySize=auto;html=1;exitX=0.978;exitY=0.673;exitDx=0;exitDy=0;entryX=0;entryY=0.5;entryDx=0;entryDy=0;exitPerimeter=0;strokeWidth=3;fillColor=#0050ef;strokeColor=#001DBC;" edge="1" parent="1">
          <mxGeometry relative="1" as="geometry">
            <mxPoint x="508.5" y="14" as="sourcePoint" />
            <mxPoint x="691.5" y="5" as="targetPoint" />
            <Array as="points">
              <mxPoint x="560.5" y="44" />
            </Array>
          </mxGeometry>
        </mxCell>
        <mxCell id="SX_XCFtSXzHyb8GBrlpH-165" style="edgeStyle=isometricEdgeStyle;rounded=0;orthogonalLoop=1;jettySize=auto;html=1;exitX=0.978;exitY=0.673;exitDx=0;exitDy=0;entryX=0;entryY=0.5;entryDx=0;entryDy=0;exitPerimeter=0;strokeWidth=3;fillColor=#0050ef;strokeColor=#001DBC;" edge="1" parent="1">
          <mxGeometry relative="1" as="geometry">
            <mxPoint x="628" y="14" as="sourcePoint" />
            <mxPoint x="811" y="5" as="targetPoint" />
            <Array as="points">
              <mxPoint x="680" y="44" />
            </Array>
          </mxGeometry>
        </mxCell>
        <mxCell id="SX_XCFtSXzHyb8GBrlpH-166" style="edgeStyle=isometricEdgeStyle;rounded=0;orthogonalLoop=1;jettySize=auto;html=1;exitX=0.978;exitY=0.673;exitDx=0;exitDy=0;entryX=0;entryY=0.5;entryDx=0;entryDy=0;exitPerimeter=0;strokeWidth=3;fillColor=#0050ef;strokeColor=#001DBC;" edge="1" parent="1">
          <mxGeometry relative="1" as="geometry">
            <mxPoint x="749.5" y="14" as="sourcePoint" />
            <mxPoint x="932.5" y="5" as="targetPoint" />
            <Array as="points">
              <mxPoint x="801.5" y="44" />
            </Array>
          </mxGeometry>
        </mxCell>
        <mxCell id="SX_XCFtSXzHyb8GBrlpH-167" style="edgeStyle=isometricEdgeStyle;rounded=0;orthogonalLoop=1;jettySize=auto;html=1;exitX=0.978;exitY=0.673;exitDx=0;exitDy=0;entryX=0;entryY=0.5;entryDx=0;entryDy=0;exitPerimeter=0;strokeWidth=3;fillColor=#0050ef;strokeColor=#001DBC;" edge="1" parent="1">
          <mxGeometry relative="1" as="geometry">
            <mxPoint x="871" y="14" as="sourcePoint" />
            <mxPoint x="1054" y="5" as="targetPoint" />
            <Array as="points">
              <mxPoint x="923" y="44" />
            </Array>
          </mxGeometry>
        </mxCell>
        <mxCell id="SX_XCFtSXzHyb8GBrlpH-168" style="edgeStyle=isometricEdgeStyle;rounded=0;orthogonalLoop=1;jettySize=auto;html=1;exitX=0.978;exitY=0.673;exitDx=0;exitDy=0;entryX=0;entryY=0.5;entryDx=0;entryDy=0;exitPerimeter=0;strokeWidth=3;fillColor=#0050ef;strokeColor=#001DBC;" edge="1" parent="1">
          <mxGeometry relative="1" as="geometry">
            <mxPoint x="987" y="24" as="sourcePoint" />
            <mxPoint x="1170" y="15" as="targetPoint" />
            <Array as="points">
              <mxPoint x="1039" y="54" />
            </Array>
          </mxGeometry>
        </mxCell>
        <mxCell id="SX_XCFtSXzHyb8GBrlpH-169" style="edgeStyle=isometricEdgeStyle;rounded=0;orthogonalLoop=1;jettySize=auto;html=1;exitX=0.978;exitY=0.673;exitDx=0;exitDy=0;entryX=0;entryY=0.5;entryDx=0;entryDy=0;exitPerimeter=0;strokeWidth=3;fillColor=#0050ef;strokeColor=#001DBC;" edge="1" parent="1">
          <mxGeometry relative="1" as="geometry">
            <mxPoint x="1108.5" y="14" as="sourcePoint" />
            <mxPoint x="1291.5" y="5" as="targetPoint" />
            <Array as="points">
              <mxPoint x="1160.5" y="44" />
            </Array>
          </mxGeometry>
        </mxCell>
        <mxCell id="SX_XCFtSXzHyb8GBrlpH-170" style="edgeStyle=isometricEdgeStyle;rounded=0;orthogonalLoop=1;jettySize=auto;html=1;exitX=0.978;exitY=0.673;exitDx=0;exitDy=0;entryX=0;entryY=0.5;entryDx=0;entryDy=0;exitPerimeter=0;strokeWidth=3;fillColor=#0050ef;strokeColor=#001DBC;" edge="1" parent="1">
          <mxGeometry relative="1" as="geometry">
            <mxPoint x="269" y="-109" as="sourcePoint" />
            <mxPoint x="452" y="-118" as="targetPoint" />
            <Array as="points">
              <mxPoint x="321" y="-79" />
            </Array>
          </mxGeometry>
        </mxCell>
        <mxCell id="SX_XCFtSXzHyb8GBrlpH-171" style="edgeStyle=isometricEdgeStyle;rounded=0;orthogonalLoop=1;jettySize=auto;html=1;exitX=0.978;exitY=0.673;exitDx=0;exitDy=0;entryX=0;entryY=0.5;entryDx=0;entryDy=0;exitPerimeter=0;strokeWidth=3;fillColor=#0050ef;strokeColor=#001DBC;" edge="1" parent="1">
          <mxGeometry relative="1" as="geometry">
            <mxPoint x="388" y="-110" as="sourcePoint" />
            <mxPoint x="571" y="-119" as="targetPoint" />
            <Array as="points">
              <mxPoint x="440" y="-80" />
            </Array>
          </mxGeometry>
        </mxCell>
        <mxCell id="SX_XCFtSXzHyb8GBrlpH-172" style="edgeStyle=isometricEdgeStyle;rounded=0;orthogonalLoop=1;jettySize=auto;html=1;exitX=0.978;exitY=0.673;exitDx=0;exitDy=0;entryX=0;entryY=0.5;entryDx=0;entryDy=0;exitPerimeter=0;strokeWidth=3;fillColor=#0050ef;strokeColor=#001DBC;" edge="1" parent="1">
          <mxGeometry relative="1" as="geometry">
            <mxPoint x="509.5" y="-110" as="sourcePoint" />
            <mxPoint x="692.5" y="-119" as="targetPoint" />
            <Array as="points">
              <mxPoint x="561.5" y="-80" />
            </Array>
          </mxGeometry>
        </mxCell>
        <mxCell id="SX_XCFtSXzHyb8GBrlpH-173" style="edgeStyle=isometricEdgeStyle;rounded=0;orthogonalLoop=1;jettySize=auto;html=1;exitX=0.978;exitY=0.673;exitDx=0;exitDy=0;entryX=0;entryY=0.5;entryDx=0;entryDy=0;exitPerimeter=0;strokeWidth=3;fillColor=#0050ef;strokeColor=#001DBC;" edge="1" parent="1">
          <mxGeometry relative="1" as="geometry">
            <mxPoint x="629" y="-110" as="sourcePoint" />
            <mxPoint x="812" y="-119" as="targetPoint" />
            <Array as="points">
              <mxPoint x="681" y="-80" />
            </Array>
          </mxGeometry>
        </mxCell>
        <mxCell id="SX_XCFtSXzHyb8GBrlpH-174" style="edgeStyle=isometricEdgeStyle;rounded=0;orthogonalLoop=1;jettySize=auto;html=1;exitX=0.978;exitY=0.673;exitDx=0;exitDy=0;entryX=0;entryY=0.5;entryDx=0;entryDy=0;exitPerimeter=0;strokeWidth=3;fillColor=#0050ef;strokeColor=#001DBC;" edge="1" parent="1">
          <mxGeometry relative="1" as="geometry">
            <mxPoint x="750.5" y="-110" as="sourcePoint" />
            <mxPoint x="933.5" y="-119" as="targetPoint" />
            <Array as="points">
              <mxPoint x="802.5" y="-80" />
            </Array>
          </mxGeometry>
        </mxCell>
        <mxCell id="SX_XCFtSXzHyb8GBrlpH-175" style="edgeStyle=isometricEdgeStyle;rounded=0;orthogonalLoop=1;jettySize=auto;html=1;exitX=0.978;exitY=0.673;exitDx=0;exitDy=0;entryX=0;entryY=0.5;entryDx=0;entryDy=0;exitPerimeter=0;strokeWidth=3;fillColor=#0050ef;strokeColor=#001DBC;" edge="1" parent="1">
          <mxGeometry relative="1" as="geometry">
            <mxPoint x="872" y="-110" as="sourcePoint" />
            <mxPoint x="1055" y="-119" as="targetPoint" />
            <Array as="points">
              <mxPoint x="924" y="-80" />
            </Array>
          </mxGeometry>
        </mxCell>
        <mxCell id="SX_XCFtSXzHyb8GBrlpH-176" style="edgeStyle=isometricEdgeStyle;rounded=0;orthogonalLoop=1;jettySize=auto;html=1;exitX=0.978;exitY=0.673;exitDx=0;exitDy=0;entryX=0;entryY=0.5;entryDx=0;entryDy=0;exitPerimeter=0;strokeWidth=3;fillColor=#0050ef;strokeColor=#001DBC;" edge="1" parent="1">
          <mxGeometry relative="1" as="geometry">
            <mxPoint x="988" y="-100" as="sourcePoint" />
            <mxPoint x="1171" y="-109" as="targetPoint" />
            <Array as="points">
              <mxPoint x="1040" y="-70" />
            </Array>
          </mxGeometry>
        </mxCell>
        <mxCell id="SX_XCFtSXzHyb8GBrlpH-177" style="edgeStyle=isometricEdgeStyle;rounded=0;orthogonalLoop=1;jettySize=auto;html=1;exitX=0.978;exitY=0.673;exitDx=0;exitDy=0;entryX=0;entryY=0.5;entryDx=0;entryDy=0;exitPerimeter=0;strokeWidth=3;fillColor=#0050ef;strokeColor=#001DBC;" edge="1" parent="1">
          <mxGeometry relative="1" as="geometry">
            <mxPoint x="1109.5" y="-110" as="sourcePoint" />
            <mxPoint x="1292.5" y="-119" as="targetPoint" />
            <Array as="points">
              <mxPoint x="1161.5" y="-80" />
            </Array>
          </mxGeometry>
        </mxCell>
        <mxCell id="SX_XCFtSXzHyb8GBrlpH-181" style="edgeStyle=orthogonalEdgeStyle;rounded=0;orthogonalLoop=1;jettySize=auto;html=1;exitX=1;exitY=0;exitDx=0;exitDy=0;entryX=0;entryY=1;entryDx=0;entryDy=0;strokeWidth=3;fillColor=#e51400;strokeColor=#B20000;elbow=vertical;curved=1;" edge="1" parent="1" target="SX_XCFtSXzHyb8GBrlpH-36">
          <mxGeometry relative="1" as="geometry">
            <mxPoint x="250" y="813" as="sourcePoint" />
            <mxPoint x="450" y="256" as="targetPoint" />
            <Array as="points">
              <mxPoint x="300" y="813" />
              <mxPoint x="300" y="300" />
              <mxPoint x="460" y="300" />
            </Array>
          </mxGeometry>
        </mxCell>
        <mxCell id="SX_XCFtSXzHyb8GBrlpH-182" style="edgeStyle=orthogonalEdgeStyle;rounded=0;orthogonalLoop=1;jettySize=auto;html=1;exitX=0.767;exitY=0.092;exitDx=0;exitDy=0;entryX=0.115;entryY=0.763;entryDx=0;entryDy=0;strokeWidth=3;fillColor=#e51400;strokeColor=#B20000;elbow=vertical;curved=1;entryPerimeter=0;exitPerimeter=0;" edge="1" parent="1" source="SX_XCFtSXzHyb8GBrlpH-10" target="SX_XCFtSXzHyb8GBrlpH-37">
          <mxGeometry relative="1" as="geometry">
            <mxPoint x="240" y="695" as="sourcePoint" />
            <mxPoint x="440" y="138" as="targetPoint" />
            <Array as="points">
              <mxPoint x="255" y="680" />
              <mxPoint x="290" y="680" />
              <mxPoint x="290" y="160" />
              <mxPoint x="458" y="160" />
            </Array>
          </mxGeometry>
        </mxCell>
        <mxCell id="SX_XCFtSXzHyb8GBrlpH-183" style="edgeStyle=orthogonalEdgeStyle;rounded=0;orthogonalLoop=1;jettySize=auto;html=1;exitX=0.767;exitY=0.092;exitDx=0;exitDy=0;entryX=0.35;entryY=0.982;entryDx=0;entryDy=0;strokeWidth=3;fillColor=#e51400;strokeColor=#B20000;elbow=vertical;curved=1;exitPerimeter=0;entryPerimeter=0;" edge="1" parent="1" target="SX_XCFtSXzHyb8GBrlpH-38">
          <mxGeometry relative="1" as="geometry">
            <mxPoint x="248" y="576" as="sourcePoint" />
            <mxPoint x="451" y="17" as="targetPoint" />
            <Array as="points">
              <mxPoint x="248" y="560" />
              <mxPoint x="280" y="560" />
              <mxPoint x="280" y="70" />
              <mxPoint x="451" y="70" />
              <mxPoint x="451" y="40" />
              <mxPoint x="472" y="40" />
            </Array>
          </mxGeometry>
        </mxCell>
        <mxCell id="SX_XCFtSXzHyb8GBrlpH-184" style="edgeStyle=orthogonalEdgeStyle;rounded=0;orthogonalLoop=1;jettySize=auto;html=1;exitX=0.767;exitY=0.092;exitDx=0;exitDy=0;entryX=0.35;entryY=0.982;entryDx=0;entryDy=0;strokeWidth=3;fillColor=#e51400;strokeColor=#B20000;elbow=vertical;curved=1;exitPerimeter=0;entryPerimeter=0;" edge="1" parent="1">
          <mxGeometry relative="1" as="geometry">
            <mxPoint x="240" y="452" as="sourcePoint" />
            <mxPoint x="464" y="-94" as="targetPoint" />
            <Array as="points">
              <mxPoint x="240" y="436" />
              <mxPoint x="272" y="436" />
              <mxPoint x="272" y="-54" />
              <mxPoint x="443" y="-54" />
              <mxPoint x="443" y="-84" />
              <mxPoint x="464" y="-84" />
            </Array>
          </mxGeometry>
        </mxCell>
        <mxCell id="SX_XCFtSXzHyb8GBrlpH-185" style="edgeStyle=orthogonalEdgeStyle;rounded=0;orthogonalLoop=1;jettySize=auto;html=1;exitX=1;exitY=0;exitDx=0;exitDy=0;entryX=0.286;entryY=0.923;entryDx=0;entryDy=0;strokeWidth=3;fillColor=#e51400;strokeColor=#B20000;elbow=vertical;curved=1;entryPerimeter=0;" edge="1" parent="1">
          <mxGeometry relative="1" as="geometry">
            <mxPoint x="386" y="938" as="sourcePoint" />
            <mxPoint x="594" y="385" as="targetPoint" />
            <Array as="points">
              <mxPoint x="436" y="938" />
              <mxPoint x="436" y="409" />
              <mxPoint x="594" y="409" />
            </Array>
          </mxGeometry>
        </mxCell>
        <mxCell id="SX_XCFtSXzHyb8GBrlpH-186" style="edgeStyle=orthogonalEdgeStyle;rounded=0;orthogonalLoop=1;jettySize=auto;html=1;exitX=1;exitY=0;exitDx=0;exitDy=0;entryX=0;entryY=1;entryDx=0;entryDy=0;strokeWidth=3;fillColor=#e51400;strokeColor=#B20000;elbow=vertical;curved=1;" edge="1" parent="1">
          <mxGeometry relative="1" as="geometry">
            <mxPoint x="376" y="812" as="sourcePoint" />
            <mxPoint x="586" y="261" as="targetPoint" />
            <Array as="points">
              <mxPoint x="426" y="812" />
              <mxPoint x="426" y="299" />
              <mxPoint x="586" y="299" />
            </Array>
          </mxGeometry>
        </mxCell>
        <mxCell id="SX_XCFtSXzHyb8GBrlpH-187" style="edgeStyle=orthogonalEdgeStyle;rounded=0;orthogonalLoop=1;jettySize=auto;html=1;exitX=0.767;exitY=0.092;exitDx=0;exitDy=0;entryX=0.115;entryY=0.763;entryDx=0;entryDy=0;strokeWidth=3;fillColor=#e51400;strokeColor=#B20000;elbow=vertical;curved=1;entryPerimeter=0;exitPerimeter=0;" edge="1" parent="1">
          <mxGeometry relative="1" as="geometry">
            <mxPoint x="381" y="695" as="sourcePoint" />
            <mxPoint x="584" y="136" as="targetPoint" />
            <Array as="points">
              <mxPoint x="381" y="679" />
              <mxPoint x="416" y="679" />
              <mxPoint x="416" y="159" />
              <mxPoint x="584" y="159" />
            </Array>
          </mxGeometry>
        </mxCell>
        <mxCell id="SX_XCFtSXzHyb8GBrlpH-188" style="edgeStyle=orthogonalEdgeStyle;rounded=0;orthogonalLoop=1;jettySize=auto;html=1;exitX=0.767;exitY=0.092;exitDx=0;exitDy=0;entryX=0.35;entryY=0.982;entryDx=0;entryDy=0;strokeWidth=3;fillColor=#e51400;strokeColor=#B20000;elbow=vertical;curved=1;exitPerimeter=0;entryPerimeter=0;" edge="1" parent="1">
          <mxGeometry relative="1" as="geometry">
            <mxPoint x="374" y="575" as="sourcePoint" />
            <mxPoint x="598" y="29" as="targetPoint" />
            <Array as="points">
              <mxPoint x="374" y="559" />
              <mxPoint x="406" y="559" />
              <mxPoint x="406" y="69" />
              <mxPoint x="577" y="69" />
              <mxPoint x="577" y="39" />
              <mxPoint x="598" y="39" />
            </Array>
          </mxGeometry>
        </mxCell>
        <mxCell id="SX_XCFtSXzHyb8GBrlpH-189" style="edgeStyle=orthogonalEdgeStyle;rounded=0;orthogonalLoop=1;jettySize=auto;html=1;exitX=0.767;exitY=0.092;exitDx=0;exitDy=0;entryX=0.35;entryY=0.982;entryDx=0;entryDy=0;strokeWidth=3;fillColor=#e51400;strokeColor=#B20000;elbow=vertical;curved=1;exitPerimeter=0;entryPerimeter=0;" edge="1" parent="1">
          <mxGeometry relative="1" as="geometry">
            <mxPoint x="366" y="451" as="sourcePoint" />
            <mxPoint x="590" y="-95" as="targetPoint" />
            <Array as="points">
              <mxPoint x="366" y="435" />
              <mxPoint x="398" y="435" />
              <mxPoint x="398" y="-55" />
              <mxPoint x="569" y="-55" />
              <mxPoint x="569" y="-85" />
              <mxPoint x="590" y="-85" />
            </Array>
          </mxGeometry>
        </mxCell>
        <mxCell id="SX_XCFtSXzHyb8GBrlpH-190" style="edgeStyle=orthogonalEdgeStyle;rounded=0;orthogonalLoop=1;jettySize=auto;html=1;exitX=1;exitY=0;exitDx=0;exitDy=0;entryX=0.286;entryY=0.923;entryDx=0;entryDy=0;strokeWidth=3;fillColor=#e51400;strokeColor=#B20000;elbow=vertical;curved=1;entryPerimeter=0;" edge="1" parent="1">
          <mxGeometry relative="1" as="geometry">
            <mxPoint x="510" y="934" as="sourcePoint" />
            <mxPoint x="718" y="381" as="targetPoint" />
            <Array as="points">
              <mxPoint x="560" y="934" />
              <mxPoint x="560" y="405" />
              <mxPoint x="718" y="405" />
            </Array>
          </mxGeometry>
        </mxCell>
        <mxCell id="SX_XCFtSXzHyb8GBrlpH-191" style="edgeStyle=orthogonalEdgeStyle;rounded=0;orthogonalLoop=1;jettySize=auto;html=1;exitX=1;exitY=0;exitDx=0;exitDy=0;entryX=0;entryY=1;entryDx=0;entryDy=0;strokeWidth=3;fillColor=#e51400;strokeColor=#B20000;elbow=vertical;curved=1;" edge="1" parent="1">
          <mxGeometry relative="1" as="geometry">
            <mxPoint x="500" y="808" as="sourcePoint" />
            <mxPoint x="710" y="257" as="targetPoint" />
            <Array as="points">
              <mxPoint x="550" y="808" />
              <mxPoint x="550" y="295" />
              <mxPoint x="710" y="295" />
            </Array>
          </mxGeometry>
        </mxCell>
        <mxCell id="SX_XCFtSXzHyb8GBrlpH-192" style="edgeStyle=orthogonalEdgeStyle;rounded=0;orthogonalLoop=1;jettySize=auto;html=1;exitX=0.767;exitY=0.092;exitDx=0;exitDy=0;entryX=0.115;entryY=0.763;entryDx=0;entryDy=0;strokeWidth=3;fillColor=#e51400;strokeColor=#B20000;elbow=vertical;curved=1;entryPerimeter=0;exitPerimeter=0;" edge="1" parent="1">
          <mxGeometry relative="1" as="geometry">
            <mxPoint x="505" y="691" as="sourcePoint" />
            <mxPoint x="708" y="132" as="targetPoint" />
            <Array as="points">
              <mxPoint x="505" y="675" />
              <mxPoint x="540" y="675" />
              <mxPoint x="540" y="155" />
              <mxPoint x="708" y="155" />
            </Array>
          </mxGeometry>
        </mxCell>
        <mxCell id="SX_XCFtSXzHyb8GBrlpH-193" style="edgeStyle=orthogonalEdgeStyle;rounded=0;orthogonalLoop=1;jettySize=auto;html=1;exitX=0.767;exitY=0.092;exitDx=0;exitDy=0;entryX=0.35;entryY=0.982;entryDx=0;entryDy=0;strokeWidth=3;fillColor=#e51400;strokeColor=#B20000;elbow=vertical;curved=1;exitPerimeter=0;entryPerimeter=0;" edge="1" parent="1">
          <mxGeometry relative="1" as="geometry">
            <mxPoint x="498" y="571" as="sourcePoint" />
            <mxPoint x="722" y="25" as="targetPoint" />
            <Array as="points">
              <mxPoint x="498" y="555" />
              <mxPoint x="530" y="555" />
              <mxPoint x="530" y="65" />
              <mxPoint x="701" y="65" />
              <mxPoint x="701" y="35" />
              <mxPoint x="722" y="35" />
            </Array>
          </mxGeometry>
        </mxCell>
        <mxCell id="SX_XCFtSXzHyb8GBrlpH-194" style="edgeStyle=orthogonalEdgeStyle;rounded=0;orthogonalLoop=1;jettySize=auto;html=1;exitX=0.767;exitY=0.092;exitDx=0;exitDy=0;entryX=0.35;entryY=0.982;entryDx=0;entryDy=0;strokeWidth=3;fillColor=#e51400;strokeColor=#B20000;elbow=vertical;curved=1;exitPerimeter=0;entryPerimeter=0;" edge="1" parent="1">
          <mxGeometry relative="1" as="geometry">
            <mxPoint x="490" y="447" as="sourcePoint" />
            <mxPoint x="714" y="-99" as="targetPoint" />
            <Array as="points">
              <mxPoint x="490" y="431" />
              <mxPoint x="522" y="431" />
              <mxPoint x="522" y="-59" />
              <mxPoint x="693" y="-59" />
              <mxPoint x="693" y="-89" />
              <mxPoint x="714" y="-89" />
            </Array>
          </mxGeometry>
        </mxCell>
        <mxCell id="SX_XCFtSXzHyb8GBrlpH-195" style="edgeStyle=orthogonalEdgeStyle;rounded=0;orthogonalLoop=1;jettySize=auto;html=1;exitX=1;exitY=0;exitDx=0;exitDy=0;entryX=0.286;entryY=0.923;entryDx=0;entryDy=0;strokeWidth=3;fillColor=#e51400;strokeColor=#B20000;elbow=vertical;curved=1;entryPerimeter=0;" edge="1" parent="1">
          <mxGeometry relative="1" as="geometry">
            <mxPoint x="626" y="939" as="sourcePoint" />
            <mxPoint x="834" y="386" as="targetPoint" />
            <Array as="points">
              <mxPoint x="676" y="939" />
              <mxPoint x="676" y="410" />
              <mxPoint x="834" y="410" />
            </Array>
          </mxGeometry>
        </mxCell>
        <mxCell id="SX_XCFtSXzHyb8GBrlpH-196" style="edgeStyle=orthogonalEdgeStyle;rounded=0;orthogonalLoop=1;jettySize=auto;html=1;exitX=1;exitY=0;exitDx=0;exitDy=0;entryX=0;entryY=1;entryDx=0;entryDy=0;strokeWidth=3;fillColor=#e51400;strokeColor=#B20000;elbow=vertical;curved=1;" edge="1" parent="1">
          <mxGeometry relative="1" as="geometry">
            <mxPoint x="616" y="813" as="sourcePoint" />
            <mxPoint x="826" y="262" as="targetPoint" />
            <Array as="points">
              <mxPoint x="666" y="813" />
              <mxPoint x="666" y="300" />
              <mxPoint x="826" y="300" />
            </Array>
          </mxGeometry>
        </mxCell>
        <mxCell id="SX_XCFtSXzHyb8GBrlpH-197" style="edgeStyle=orthogonalEdgeStyle;rounded=0;orthogonalLoop=1;jettySize=auto;html=1;exitX=0.767;exitY=0.092;exitDx=0;exitDy=0;entryX=0.115;entryY=0.763;entryDx=0;entryDy=0;strokeWidth=3;fillColor=#e51400;strokeColor=#B20000;elbow=vertical;curved=1;entryPerimeter=0;exitPerimeter=0;" edge="1" parent="1">
          <mxGeometry relative="1" as="geometry">
            <mxPoint x="621" y="696" as="sourcePoint" />
            <mxPoint x="824" y="137" as="targetPoint" />
            <Array as="points">
              <mxPoint x="621" y="680" />
              <mxPoint x="656" y="680" />
              <mxPoint x="656" y="160" />
              <mxPoint x="824" y="160" />
            </Array>
          </mxGeometry>
        </mxCell>
        <mxCell id="SX_XCFtSXzHyb8GBrlpH-198" style="edgeStyle=orthogonalEdgeStyle;rounded=0;orthogonalLoop=1;jettySize=auto;html=1;exitX=0.767;exitY=0.092;exitDx=0;exitDy=0;entryX=0.35;entryY=0.982;entryDx=0;entryDy=0;strokeWidth=3;fillColor=#e51400;strokeColor=#B20000;elbow=vertical;curved=1;exitPerimeter=0;entryPerimeter=0;" edge="1" parent="1">
          <mxGeometry relative="1" as="geometry">
            <mxPoint x="614" y="576" as="sourcePoint" />
            <mxPoint x="838" y="30" as="targetPoint" />
            <Array as="points">
              <mxPoint x="614" y="560" />
              <mxPoint x="646" y="560" />
              <mxPoint x="646" y="70" />
              <mxPoint x="817" y="70" />
              <mxPoint x="817" y="40" />
              <mxPoint x="838" y="40" />
            </Array>
          </mxGeometry>
        </mxCell>
        <mxCell id="SX_XCFtSXzHyb8GBrlpH-199" style="edgeStyle=orthogonalEdgeStyle;rounded=0;orthogonalLoop=1;jettySize=auto;html=1;exitX=0.767;exitY=0.092;exitDx=0;exitDy=0;entryX=0.35;entryY=0.982;entryDx=0;entryDy=0;strokeWidth=3;fillColor=#e51400;strokeColor=#B20000;elbow=vertical;curved=1;exitPerimeter=0;entryPerimeter=0;" edge="1" parent="1">
          <mxGeometry relative="1" as="geometry">
            <mxPoint x="606" y="452" as="sourcePoint" />
            <mxPoint x="830" y="-94" as="targetPoint" />
            <Array as="points">
              <mxPoint x="606" y="436" />
              <mxPoint x="638" y="436" />
              <mxPoint x="638" y="-54" />
              <mxPoint x="809" y="-54" />
              <mxPoint x="809" y="-84" />
              <mxPoint x="830" y="-84" />
            </Array>
          </mxGeometry>
        </mxCell>
        <mxCell id="SX_XCFtSXzHyb8GBrlpH-200" style="edgeStyle=orthogonalEdgeStyle;rounded=0;orthogonalLoop=1;jettySize=auto;html=1;exitX=1;exitY=0;exitDx=0;exitDy=0;entryX=0.286;entryY=0.923;entryDx=0;entryDy=0;strokeWidth=3;fillColor=#e51400;strokeColor=#B20000;elbow=vertical;curved=1;entryPerimeter=0;" edge="1" parent="1">
          <mxGeometry relative="1" as="geometry">
            <mxPoint x="751" y="946" as="sourcePoint" />
            <mxPoint x="959" y="393" as="targetPoint" />
            <Array as="points">
              <mxPoint x="801" y="946" />
              <mxPoint x="801" y="417" />
              <mxPoint x="959" y="417" />
            </Array>
          </mxGeometry>
        </mxCell>
        <mxCell id="SX_XCFtSXzHyb8GBrlpH-201" style="edgeStyle=orthogonalEdgeStyle;rounded=0;orthogonalLoop=1;jettySize=auto;html=1;exitX=1;exitY=0;exitDx=0;exitDy=0;entryX=0;entryY=1;entryDx=0;entryDy=0;strokeWidth=3;fillColor=#e51400;strokeColor=#B20000;elbow=vertical;curved=1;" edge="1" parent="1">
          <mxGeometry relative="1" as="geometry">
            <mxPoint x="741" y="820" as="sourcePoint" />
            <mxPoint x="951" y="269" as="targetPoint" />
            <Array as="points">
              <mxPoint x="791" y="820" />
              <mxPoint x="791" y="307" />
              <mxPoint x="951" y="307" />
            </Array>
          </mxGeometry>
        </mxCell>
        <mxCell id="SX_XCFtSXzHyb8GBrlpH-202" style="edgeStyle=orthogonalEdgeStyle;rounded=0;orthogonalLoop=1;jettySize=auto;html=1;exitX=0.767;exitY=0.092;exitDx=0;exitDy=0;entryX=0.115;entryY=0.763;entryDx=0;entryDy=0;strokeWidth=3;fillColor=#e51400;strokeColor=#B20000;elbow=vertical;curved=1;entryPerimeter=0;exitPerimeter=0;" edge="1" parent="1">
          <mxGeometry relative="1" as="geometry">
            <mxPoint x="746" y="703" as="sourcePoint" />
            <mxPoint x="949" y="144" as="targetPoint" />
            <Array as="points">
              <mxPoint x="746" y="687" />
              <mxPoint x="781" y="687" />
              <mxPoint x="781" y="167" />
              <mxPoint x="949" y="167" />
            </Array>
          </mxGeometry>
        </mxCell>
        <mxCell id="SX_XCFtSXzHyb8GBrlpH-203" style="edgeStyle=orthogonalEdgeStyle;rounded=0;orthogonalLoop=1;jettySize=auto;html=1;exitX=0.767;exitY=0.092;exitDx=0;exitDy=0;entryX=0.35;entryY=0.982;entryDx=0;entryDy=0;strokeWidth=3;fillColor=#e51400;strokeColor=#B20000;elbow=vertical;curved=1;exitPerimeter=0;entryPerimeter=0;" edge="1" parent="1">
          <mxGeometry relative="1" as="geometry">
            <mxPoint x="739" y="583" as="sourcePoint" />
            <mxPoint x="963" y="37" as="targetPoint" />
            <Array as="points">
              <mxPoint x="739" y="567" />
              <mxPoint x="771" y="567" />
              <mxPoint x="771" y="77" />
              <mxPoint x="942" y="77" />
              <mxPoint x="942" y="47" />
              <mxPoint x="963" y="47" />
            </Array>
          </mxGeometry>
        </mxCell>
        <mxCell id="SX_XCFtSXzHyb8GBrlpH-204" style="edgeStyle=orthogonalEdgeStyle;rounded=0;orthogonalLoop=1;jettySize=auto;html=1;exitX=0.767;exitY=0.092;exitDx=0;exitDy=0;entryX=0.35;entryY=0.982;entryDx=0;entryDy=0;strokeWidth=3;fillColor=#e51400;strokeColor=#B20000;elbow=vertical;curved=1;exitPerimeter=0;entryPerimeter=0;" edge="1" parent="1">
          <mxGeometry relative="1" as="geometry">
            <mxPoint x="731" y="459" as="sourcePoint" />
            <mxPoint x="955" y="-87" as="targetPoint" />
            <Array as="points">
              <mxPoint x="731" y="443" />
              <mxPoint x="763" y="443" />
              <mxPoint x="763" y="-47" />
              <mxPoint x="934" y="-47" />
              <mxPoint x="934" y="-77" />
              <mxPoint x="955" y="-77" />
            </Array>
          </mxGeometry>
        </mxCell>
        <mxCell id="SX_XCFtSXzHyb8GBrlpH-205" style="edgeStyle=orthogonalEdgeStyle;rounded=0;orthogonalLoop=1;jettySize=auto;html=1;exitX=1;exitY=0;exitDx=0;exitDy=0;entryX=0.286;entryY=0.923;entryDx=0;entryDy=0;strokeWidth=3;fillColor=#e51400;strokeColor=#B20000;elbow=vertical;curved=1;entryPerimeter=0;" edge="1" parent="1">
          <mxGeometry relative="1" as="geometry">
            <mxPoint x="873" y="944" as="sourcePoint" />
            <mxPoint x="1081" y="391" as="targetPoint" />
            <Array as="points">
              <mxPoint x="923" y="944" />
              <mxPoint x="923" y="415" />
              <mxPoint x="1081" y="415" />
            </Array>
          </mxGeometry>
        </mxCell>
        <mxCell id="SX_XCFtSXzHyb8GBrlpH-206" style="edgeStyle=orthogonalEdgeStyle;rounded=0;orthogonalLoop=1;jettySize=auto;html=1;exitX=1;exitY=0;exitDx=0;exitDy=0;entryX=0;entryY=1;entryDx=0;entryDy=0;strokeWidth=3;fillColor=#e51400;strokeColor=#B20000;elbow=vertical;curved=1;" edge="1" parent="1">
          <mxGeometry relative="1" as="geometry">
            <mxPoint x="863" y="818" as="sourcePoint" />
            <mxPoint x="1073" y="267" as="targetPoint" />
            <Array as="points">
              <mxPoint x="913" y="818" />
              <mxPoint x="913" y="305" />
              <mxPoint x="1073" y="305" />
            </Array>
          </mxGeometry>
        </mxCell>
        <mxCell id="SX_XCFtSXzHyb8GBrlpH-207" style="edgeStyle=orthogonalEdgeStyle;rounded=0;orthogonalLoop=1;jettySize=auto;html=1;exitX=0.767;exitY=0.092;exitDx=0;exitDy=0;entryX=0.115;entryY=0.763;entryDx=0;entryDy=0;strokeWidth=3;fillColor=#e51400;strokeColor=#B20000;elbow=vertical;curved=1;entryPerimeter=0;exitPerimeter=0;" edge="1" parent="1">
          <mxGeometry relative="1" as="geometry">
            <mxPoint x="868" y="701" as="sourcePoint" />
            <mxPoint x="1071" y="142" as="targetPoint" />
            <Array as="points">
              <mxPoint x="868" y="685" />
              <mxPoint x="903" y="685" />
              <mxPoint x="903" y="165" />
              <mxPoint x="1071" y="165" />
            </Array>
          </mxGeometry>
        </mxCell>
        <mxCell id="SX_XCFtSXzHyb8GBrlpH-208" style="edgeStyle=orthogonalEdgeStyle;rounded=0;orthogonalLoop=1;jettySize=auto;html=1;exitX=0.767;exitY=0.092;exitDx=0;exitDy=0;entryX=0.35;entryY=0.982;entryDx=0;entryDy=0;strokeWidth=3;fillColor=#e51400;strokeColor=#B20000;elbow=vertical;curved=1;exitPerimeter=0;entryPerimeter=0;" edge="1" parent="1">
          <mxGeometry relative="1" as="geometry">
            <mxPoint x="861" y="581" as="sourcePoint" />
            <mxPoint x="1085" y="35" as="targetPoint" />
            <Array as="points">
              <mxPoint x="861" y="565" />
              <mxPoint x="893" y="565" />
              <mxPoint x="893" y="75" />
              <mxPoint x="1064" y="75" />
              <mxPoint x="1064" y="45" />
              <mxPoint x="1085" y="45" />
            </Array>
          </mxGeometry>
        </mxCell>
        <mxCell id="SX_XCFtSXzHyb8GBrlpH-209" style="edgeStyle=orthogonalEdgeStyle;rounded=0;orthogonalLoop=1;jettySize=auto;html=1;exitX=0.767;exitY=0.092;exitDx=0;exitDy=0;entryX=0.35;entryY=0.982;entryDx=0;entryDy=0;strokeWidth=3;fillColor=#e51400;strokeColor=#B20000;elbow=vertical;curved=1;exitPerimeter=0;entryPerimeter=0;" edge="1" parent="1">
          <mxGeometry relative="1" as="geometry">
            <mxPoint x="853" y="457" as="sourcePoint" />
            <mxPoint x="1077" y="-89" as="targetPoint" />
            <Array as="points">
              <mxPoint x="853" y="441" />
              <mxPoint x="885" y="441" />
              <mxPoint x="885" y="-49" />
              <mxPoint x="1056" y="-49" />
              <mxPoint x="1056" y="-79" />
              <mxPoint x="1077" y="-79" />
            </Array>
          </mxGeometry>
        </mxCell>
        <mxCell id="SX_XCFtSXzHyb8GBrlpH-210" style="edgeStyle=orthogonalEdgeStyle;rounded=0;orthogonalLoop=1;jettySize=auto;html=1;exitX=1;exitY=0;exitDx=0;exitDy=0;entryX=0.286;entryY=0.923;entryDx=0;entryDy=0;strokeWidth=3;fillColor=#e51400;strokeColor=#B20000;elbow=vertical;curved=1;entryPerimeter=0;" edge="1" parent="1">
          <mxGeometry relative="1" as="geometry">
            <mxPoint x="989" y="941" as="sourcePoint" />
            <mxPoint x="1197" y="388" as="targetPoint" />
            <Array as="points">
              <mxPoint x="1039" y="941" />
              <mxPoint x="1039" y="412" />
              <mxPoint x="1197" y="412" />
            </Array>
          </mxGeometry>
        </mxCell>
        <mxCell id="SX_XCFtSXzHyb8GBrlpH-211" style="edgeStyle=orthogonalEdgeStyle;rounded=0;orthogonalLoop=1;jettySize=auto;html=1;exitX=1;exitY=0;exitDx=0;exitDy=0;entryX=0;entryY=1;entryDx=0;entryDy=0;strokeWidth=3;fillColor=#e51400;strokeColor=#B20000;elbow=vertical;curved=1;" edge="1" parent="1">
          <mxGeometry relative="1" as="geometry">
            <mxPoint x="979" y="815" as="sourcePoint" />
            <mxPoint x="1189" y="264" as="targetPoint" />
            <Array as="points">
              <mxPoint x="1029" y="815" />
              <mxPoint x="1029" y="302" />
              <mxPoint x="1189" y="302" />
            </Array>
          </mxGeometry>
        </mxCell>
        <mxCell id="SX_XCFtSXzHyb8GBrlpH-212" style="edgeStyle=orthogonalEdgeStyle;rounded=0;orthogonalLoop=1;jettySize=auto;html=1;exitX=0.767;exitY=0.092;exitDx=0;exitDy=0;entryX=0.115;entryY=0.763;entryDx=0;entryDy=0;strokeWidth=3;fillColor=#e51400;strokeColor=#B20000;elbow=vertical;curved=1;entryPerimeter=0;exitPerimeter=0;" edge="1" parent="1">
          <mxGeometry relative="1" as="geometry">
            <mxPoint x="984" y="698" as="sourcePoint" />
            <mxPoint x="1187" y="139" as="targetPoint" />
            <Array as="points">
              <mxPoint x="984" y="682" />
              <mxPoint x="1019" y="682" />
              <mxPoint x="1019" y="162" />
              <mxPoint x="1187" y="162" />
            </Array>
          </mxGeometry>
        </mxCell>
        <mxCell id="SX_XCFtSXzHyb8GBrlpH-213" style="edgeStyle=orthogonalEdgeStyle;rounded=0;orthogonalLoop=1;jettySize=auto;html=1;exitX=0.767;exitY=0.092;exitDx=0;exitDy=0;entryX=0.35;entryY=0.982;entryDx=0;entryDy=0;strokeWidth=3;fillColor=#e51400;strokeColor=#B20000;elbow=vertical;curved=1;exitPerimeter=0;entryPerimeter=0;" edge="1" parent="1">
          <mxGeometry relative="1" as="geometry">
            <mxPoint x="977" y="578" as="sourcePoint" />
            <mxPoint x="1201" y="32" as="targetPoint" />
            <Array as="points">
              <mxPoint x="977" y="562" />
              <mxPoint x="1009" y="562" />
              <mxPoint x="1009" y="72" />
              <mxPoint x="1180" y="72" />
              <mxPoint x="1180" y="42" />
              <mxPoint x="1201" y="42" />
            </Array>
          </mxGeometry>
        </mxCell>
        <mxCell id="SX_XCFtSXzHyb8GBrlpH-214" style="edgeStyle=orthogonalEdgeStyle;rounded=0;orthogonalLoop=1;jettySize=auto;html=1;exitX=0.767;exitY=0.092;exitDx=0;exitDy=0;entryX=0.35;entryY=0.982;entryDx=0;entryDy=0;strokeWidth=3;fillColor=#e51400;strokeColor=#B20000;elbow=vertical;curved=1;exitPerimeter=0;entryPerimeter=0;" edge="1" parent="1">
          <mxGeometry relative="1" as="geometry">
            <mxPoint x="969" y="454" as="sourcePoint" />
            <mxPoint x="1193" y="-92" as="targetPoint" />
            <Array as="points">
              <mxPoint x="969" y="438" />
              <mxPoint x="1001" y="438" />
              <mxPoint x="1001" y="-52" />
              <mxPoint x="1172" y="-52" />
              <mxPoint x="1172" y="-82" />
              <mxPoint x="1193" y="-82" />
            </Array>
          </mxGeometry>
        </mxCell>
        <mxCell id="SX_XCFtSXzHyb8GBrlpH-215" style="edgeStyle=orthogonalEdgeStyle;rounded=0;orthogonalLoop=1;jettySize=auto;html=1;exitX=1;exitY=0;exitDx=0;exitDy=0;entryX=0.286;entryY=0.923;entryDx=0;entryDy=0;strokeWidth=3;fillColor=#e51400;strokeColor=#B20000;elbow=vertical;curved=1;entryPerimeter=0;" edge="1" parent="1">
          <mxGeometry relative="1" as="geometry">
            <mxPoint x="1114" y="944" as="sourcePoint" />
            <mxPoint x="1322" y="391" as="targetPoint" />
            <Array as="points">
              <mxPoint x="1164" y="944" />
              <mxPoint x="1164" y="415" />
              <mxPoint x="1322" y="415" />
            </Array>
          </mxGeometry>
        </mxCell>
        <mxCell id="SX_XCFtSXzHyb8GBrlpH-216" style="edgeStyle=orthogonalEdgeStyle;rounded=0;orthogonalLoop=1;jettySize=auto;html=1;exitX=1;exitY=0;exitDx=0;exitDy=0;entryX=0;entryY=1;entryDx=0;entryDy=0;strokeWidth=3;fillColor=#e51400;strokeColor=#B20000;elbow=vertical;curved=1;" edge="1" parent="1">
          <mxGeometry relative="1" as="geometry">
            <mxPoint x="1104" y="818" as="sourcePoint" />
            <mxPoint x="1314" y="267" as="targetPoint" />
            <Array as="points">
              <mxPoint x="1154" y="818" />
              <mxPoint x="1154" y="305" />
              <mxPoint x="1314" y="305" />
            </Array>
          </mxGeometry>
        </mxCell>
        <mxCell id="SX_XCFtSXzHyb8GBrlpH-217" style="edgeStyle=orthogonalEdgeStyle;rounded=0;orthogonalLoop=1;jettySize=auto;html=1;exitX=0.767;exitY=0.092;exitDx=0;exitDy=0;entryX=0.115;entryY=0.763;entryDx=0;entryDy=0;strokeWidth=3;fillColor=#e51400;strokeColor=#B20000;elbow=vertical;curved=1;entryPerimeter=0;exitPerimeter=0;" edge="1" parent="1">
          <mxGeometry relative="1" as="geometry">
            <mxPoint x="1109" y="701" as="sourcePoint" />
            <mxPoint x="1312" y="142" as="targetPoint" />
            <Array as="points">
              <mxPoint x="1109" y="685" />
              <mxPoint x="1144" y="685" />
              <mxPoint x="1144" y="165" />
              <mxPoint x="1312" y="165" />
            </Array>
          </mxGeometry>
        </mxCell>
        <mxCell id="SX_XCFtSXzHyb8GBrlpH-218" style="edgeStyle=orthogonalEdgeStyle;rounded=0;orthogonalLoop=1;jettySize=auto;html=1;exitX=0.767;exitY=0.092;exitDx=0;exitDy=0;entryX=0.35;entryY=0.982;entryDx=0;entryDy=0;strokeWidth=3;fillColor=#e51400;strokeColor=#B20000;elbow=vertical;curved=1;exitPerimeter=0;entryPerimeter=0;" edge="1" parent="1">
          <mxGeometry relative="1" as="geometry">
            <mxPoint x="1102" y="581" as="sourcePoint" />
            <mxPoint x="1326" y="35" as="targetPoint" />
            <Array as="points">
              <mxPoint x="1102" y="565" />
              <mxPoint x="1134" y="565" />
              <mxPoint x="1134" y="75" />
              <mxPoint x="1305" y="75" />
              <mxPoint x="1305" y="45" />
              <mxPoint x="1326" y="45" />
            </Array>
          </mxGeometry>
        </mxCell>
        <mxCell id="SX_XCFtSXzHyb8GBrlpH-219" style="edgeStyle=orthogonalEdgeStyle;rounded=0;orthogonalLoop=1;jettySize=auto;html=1;exitX=0.767;exitY=0.092;exitDx=0;exitDy=0;entryX=0.35;entryY=0.982;entryDx=0;entryDy=0;strokeWidth=3;fillColor=#e51400;strokeColor=#B20000;elbow=vertical;curved=1;exitPerimeter=0;entryPerimeter=0;" edge="1" parent="1">
          <mxGeometry relative="1" as="geometry">
            <mxPoint x="1094" y="457" as="sourcePoint" />
            <mxPoint x="1318" y="-89" as="targetPoint" />
            <Array as="points">
              <mxPoint x="1094" y="441" />
              <mxPoint x="1126" y="441" />
              <mxPoint x="1126" y="-49" />
              <mxPoint x="1297" y="-49" />
              <mxPoint x="1297" y="-79" />
              <mxPoint x="1318" y="-79" />
            </Array>
          </mxGeometry>
        </mxCell>
      </root>
    </mxGraphModel>
  </diagram>
</mxfile>
